<svg xmlns="http://www.w3.org/2000/svg" width="114" height="217" version="1.0" viewBox="0 0 10.65 20.25" shape-rendering="geometricPrecision" text-rendering="geometricPrecision" image-rendering="optimizeQuality" fill-rule="evenodd" clip-rule="evenodd"><path d="M7.99 0c.54 0 1.08.03 1.62.05.35.02.71.07 1.04.1l-.03 3.26H9.29c-.27 0-.54 0-.81.01-.86.03-1.49.35-1.54 1.43-.03.78-.05 2.5-.05 2.59H10.49c-.17 1.25-.33 2.45-.51 3.66H6.89l-.07 9.15H3.03l.07-9.16H0l.03-3.65h3.11l.01-.27c0-.73-.01-1.47.02-2.2.01-.46.04-.94.12-1.4.21-1.11.73-2.05 1.66-2.72C5.77.27 6.7.03 7.68 0h.31z" fill="#f8e0bc" fill-rule="nonzero"/></svg>