<svg xmlns="http://www.w3.org/2000/svg" width="192" height="192" version="1.0" viewBox="0 0 24.74 24.73" shape-rendering="geometricPrecision" text-rendering="geometricPrecision" image-rendering="optimizeQuality" fill-rule="evenodd" clip-rule="evenodd"><defs><style>.fil0{fill:#f8e0bc;fill-rule:nonzero}</style></defs><g id="Designed_x0020_by_x0020_Freepik"><path class="fil0" d="M19.02 4.3h.01c.82 0 1.48.67 1.47 1.49 0 .82-.67 1.48-1.5 1.48-.82-.01-1.47-.67-1.47-1.49.01-.82.67-1.48 1.49-1.48z"/><path class="fil0" d="M22.21 18.57c.36-2.18.36-10.12.16-12.15-.23-2.18-1.56-3.61-3.71-3.95-1.07-.16-3.63-.23-6.18-.23-2.47 0-4.92.07-6 .18C4.32 2.67 2.87 4 2.53 6.15c-.36 2.27-.35 10.78-.09 12.49.28 1.77 1.28 3 3.06 3.49.96.27 3.83.37 6.65.37 2.6 0 5.14-.08 6.1-.19 2.18-.24 3.62-1.58 3.96-3.74zm2.38-12.36c.19 1.95.3 11.14-.27 13.3-.77 2.82-2.61 4.49-5.46 4.95-1.07.17-3.95.27-6.82.27-2.95 0-5.89-.11-6.88-.36-2.8-.73-4.48-2.56-4.92-5.4C-.1 16.89-.13 7.19.47 5.09 1.26 2.34 3.09.74 5.86.28 7.12.07 9.58 0 12.06 0c2.31 0 4.64.06 6.04.14 1.7.09 3.26.64 4.52 1.85 1.2 1.15 1.82 2.59 1.97 4.22z"/><path class="fil0" d="M12.33 16.47c2.25 0 4.1-1.81 4.14-4.06a4.064 4.064 0 00-4.03-4.15h-.04c-2.25 0-4.1 1.82-4.14 4.07a4.076 4.076 0 004.04 4.14h.03zm.1-10.44a6.28 6.28 0 016.28 6.35c-.02 3.49-2.89 6.33-6.39 6.33-3.51 0-6.32-2.84-6.29-6.34.03-3.51 2.89-6.35 6.4-6.34z"/></g></svg>