<svg xmlns="http://www.w3.org/2000/svg" width="1904" height="560" version="1.0" viewBox="0 0 1809.01 532.51" shape-rendering="geometricPrecision" text-rendering="geometricPrecision" image-rendering="optimizeQuality" fill-rule="evenodd" clip-rule="evenodd"><defs><style>.fil0{fill:#d15d46;fill-rule:nonzero}</style></defs><g id="Capa_x0020_1"><g id="_2676423463184"><path class="fil0" d="M49.92 359.39c-.97.65-1.95 1.29-2.92 1.94-.89.57-1.86 1.22-2.84 1.87-3.48 1.94-6.64 2.91-9.48 3.07-2.83.17-5.99 1.87-9.48 5.03-1.29-1.62-2.19-2.43-2.83-2.43h-3.33c-4.13 0-6.48-1.06-7.13-3.32-1.29.32-3.24 1.13-5.91 2.43-2.76 1.21-4.7 2.18-6 2.83 2.92-4.13 4.78-7.29 5.75-9.48.9-2.27 1.46-4.29 1.62-6.24.17-1.86.33-3.81.49-5.91.16-2.03.89-4.95 2.19-8.76.57-1.29 1.05-2.51 1.38-3.8.32-1.3.81-2.68 1.45-4.3 1.54-4.7 2.92-10.13 3.98-16.12 1.13-6 2.99-11.27 5.51-15.64 0-5.43 1.13-10.46 3.56-15.24 2.35-4.7 4.3-9.64 5.92-14.75.65-1.86 1.54-3.72 2.59-5.67 1.13-1.86 2.03-3.81 2.59-5.67 1.3-3.16 2.35-6.24 3.16-9.24.73-3 1.62-6 2.6-8.83 2.51-9.16 5.02-18.24 7.61-27.31 2.52-9 4.87-18.07 7.05-27.31.33-1.54.73-3.32 1.22-5.19.49-1.94 1.05-3.64 1.7-5.18 1.54-4.78 2.59-9.65 3.08-14.51.49-4.94 1.95-9.56 4.46-14.02-.33-2.18-.25-4.29.24-6.15.49-1.95 1.05-3.98 1.7-6.16.65-2.27 1.22-4.3 1.87-6.24.64-1.87 1.13-3.33 1.45-4.22 1.54-4.13 2.76-7.86 3.57-11.18.73-3.32 2.43-6.89 4.94-10.7 0 0 .49-1.62 1.46-4.94.97-3.32 2.03-7.05 3.32-11.18 1.22-4.13 2.35-8.02 3.33-11.67.97-3.65 1.37-5.75 1.37-6.4.65-2.51 1.22-4.86 1.71-7.13.48-2.19 1.05-4.54 1.62-7.05.64-1.62 1.29-3 1.94-4.06.65-1.13 1.3-2.51 1.86-4.05.98-3.48 1.95-7.78 2.84-12.8.97-5.1 2.27-9.08 3.81-11.91.97-2.19 2.84-4.05 5.51-5.43 2.67-1.46 4.94-2.92 6.89-4.54 5.67.65 9.88.32 12.56-.97 2.67-1.22 5.27-2.84 7.86-4.7 1.54.32 3.08.73 4.46 1.13 1.45.49 2.91.73 4.53.73 6 6.65 10.21 13.45 12.56 20.42 2.44 6.97 4.7 13.94 6.89 20.91.97 3.48 1.95 6.89 2.84 10.21.97 3.32 2.1 6.56 3.32 9.72.32.98.81 2.03 1.46 3.08.65 1.14 1.3 2.35 1.86 3.57 1.62 2.51 3 5.27 4.05 8.1 1.14 2.84 2.19 5.67 3.08 8.51 1.95 2.27 3.33 4.86 4.3 7.86.97 3 1.86 6 2.59 9 .81 2.99 1.7 5.91 2.6 8.59.97 2.67 2.43 4.94 4.29 6.88.65 3.49 1.78 6.89 3.32 10.21 1.62 3.33 2.68 6.89 3.32 10.7 1.95 2.51 4.14 7.29 6.65 14.42 2.59 7.14 5.1 14.83 7.62 23.02 2.51 8.26 4.94 16.21 7.13 23.74 2.19 7.62 3.81 12.97 4.78 16.21.57 2.51 1.86 5.75 3.73 9.72 1.94 3.97 3.64 7.46 5.26 10.7 1.22 3.4 2.6 7.05 4.05 10.86 1.38 3.81 2.6 7.45 3.57 10.94.57 3.48 1.3 6.8 2.11 9.96.81 3.16 1.62 6.49 2.59 9.97.65 2.19 1.62 4.22 2.84 5.92 1.29 1.78 2.27 3.89 2.83 6.48 1.3 2.51 2.19 4.86 2.68 7.05.48 2.27 1.46 4.62 3.08 7.13-.33 3.49-.17 5.75.48 6.65.65.97 1.22 2.1 1.87 3.32 1.29 6.64 2.67 11.99 4.29 15.96 1.54 3.89 2.35 8.11 2.35 12.56 0 3.81-.73 6.16-2.11 7.13-1.45.89-3.24 2.52-5.51 4.7-2.51 2.27-4.62 3.97-6.4 5.27-1.7 1.22-4.29 1.86-7.78 1.86-3.81-.32-6.16.25-6.89 1.71-.81 1.37-1.37 2.43-1.7 3.08-3.8-.33-6.24-.41-7.37-.25-1.05.16-2.19.25-3.32.25-1.06 0-2.19.24-3.33.72-1.05.49-2.26 1.46-3.56 3.08-2.19-2.59-4.3-4.86-6.4-6.88-2.03-2.11-3.89-4.38-5.43-6.89 0-5.43-.73-11.75-2.19-19.04-1.38-7.22-2.92-12.97-4.46-17.02-3.16-8.27-6.07-16.37-8.83-24.23a956.43 956.43 0 01-7.78-24.23c-.97-3.49-2.03-6.65-3.08-9.48-1.13-2.92-2.35-5.92-3.56-9.08.64 2.6.81 5.19.73 7.86-.17 2.68-1.06 5.27-2.68 7.86-.65.65-1.54 1.38-2.83 2.35-1.3.98-1.87 1.7-1.87 2.35-3.81 3.16-7.13 6.16-9.97 9.08.33 5.67-.48 9.64-2.43 11.83-1.86 2.19-3.89 4.29-6.16 6.16-5.34.32-8.67 0-9.96-.89-1.3-.98-3-1.62-5.19-1.95-1.3-.32-2.59-.4-3.81-.24-1.29.16-2.51.24-3.81.24-2.51 0-4.94-.65-7.13-1.86-.97-.65-1.62-1.3-2.1-1.95-.49-.64-1.06-1.21-1.71-1.86-2.51-2.51-5.42-4.7-8.75-6.4-3.32-1.78-6.56-3.24-9.72-4.54-2.59-2.19-5.19-4.54-7.86-6.89-2.68-2.35-5.43-4.37-8.35-5.91-2.51 5.99-4.46 11.26-5.91 15.88-1.38 4.62-3.08 9.08-4.95 13.53-3.48 10.78-6.32 20.18-8.59 28.28a350.08 350.08 0 01-7.61 24.48c-1.22.24-2.44.73-3.57 1.37-1.05.65-2.43.98-3.97.98l-3.32-1.46zm46.51-101.13c2.51-4.46 4.78-6.89 6.89-7.38 2.03-.4 3.89-1.62 5.43-3.56.65-.57 1.38-1.38 2.19-2.35.73-.98 1.62-1.87 2.59-2.84.97-.65 2.02-1.3 3.32-1.95 1.22-.56 2.35-1.37 3.32-2.34 2.52-2.19 4.62-4.14 6.41-5.68 1.7-1.62 4.37-2.35 7.86-2.35 5.34 0 9.8 1.3 13.29 3.97 3.48 2.76 7.69 4.54 12.8 5.51.65 1.87 2.67 3.25 6.16 4.06 3.48.73 6.16 1.78 8.1 3.08-3.16-7.95-5.67-15.97-7.37-23.99-1.79-8.1-3.89-16.05-6.4-23.99-1.95-6.97-4.14-13.85-6.65-20.66-2.51-6.81-5.1-13.37-7.62-19.69-2.18-6.32-4.13-12.48-5.67-18.56-1.62-6-3.65-11.83-6.24-17.5-2.51 5.67-5.02 12.64-7.53 20.82-2.6 8.27-4.46 15.56-5.76 21.88 0 2.84-.16 5.03-.4 6.65-.65 2.19-1.3 4.21-1.95 5.91-.65 1.79-1.21 3.57-1.86 5.51-4.13 12.32-7.86 24.8-11.18 37.44a481.83 481.83 0 01-11.67 38.01h1.94zM453.96 24.23c2.51 3.73 4.69 7.62 6.4 11.59 1.78 3.97 2.67 6.72 2.67 8.34 0 2.19-.32 3.97-.97 5.43-.65 1.46-1.62 3.08-2.84 5.03-12.07 5.35-24.15 10.85-36.38 16.61-12.16 5.67-24.56 11.02-37.28 16.12-3.16 1.22-6.16 2.52-8.99 3.81-2.84 1.22-6 2.51-9.48 3.81-.65.57-1.95 1.14-4.06 1.62-2.02.49-3.89.73-5.43.73.65 6.32.98 12.8 1.14 19.45.16 6.64.4 13.29.73 19.93 0 1.95.32 3.73.97 5.52.65 1.7.97 3.56.97 5.42.57 6 .89 11.84.89 17.59 0 5.67.33 11.51.98 17.58 11.75-5.1 23.34-10.21 34.92-15.47 11.51-5.19 23.18-10.38 34.85-15.4 1.94.32 3.97.65 6.24.89 2.19.32 4.21.97 6.16 1.94.64.65 1.21 1.38 1.86 2.36.65.97 1.46 1.78 2.35 2.35 0 1.62 1.05 3.88 3.16 6.88 2.03 3 3.08 6.32 3.08 9.81 0 .57.4 1.62 1.38 3.08.97 1.37 1.62 2.43 1.94 3.08 0 3.16-.16 4.86-.48 5.18 2.18 1.62 3.72 3.65 4.45 6.16.81 2.59 1.22 5.11 1.22 7.62-5.67 6.32-11.35 10.61-16.86 12.8-5.51 2.27-11.18 4.62-16.85 7.13-1.54.98-3.32 1.95-5.19 2.84-1.94.97-3.81 1.94-5.75 2.84-2.51.97-4.94 1.86-7.38 2.67-2.35.73-4.78 1.78-7.29 3.08-3.81 2.19-8.1 4.7-12.88 7.62-4.7 2.83-9 4.53-12.81 5.18-2.51.65-4.62 1.06-6.4 1.22-1.7.16-3.73.97-5.91 2.59-.33 3.81-.41 7.54-.25 11.18.17 3.57.25 7.13.25 10.62 0 3.81-.25 7.54-.73 11.18-.49 3.65-.73 7.38-.73 11.18 0 6.33-.33 12.57-.89 18.72-.65 6.16-.98 12.32-.98 18.32 0 3.81.16 7.53.49 11.1.32 3.65.49 7.21.49 10.7 0 1.94-.33 3.64-.98 5.26-.65 1.54-1.29 3.16-1.94 4.7-4.38.65-7.05.57-8.02-.24-.98-.73-2.11-1.46-3.33-2.11-1.62 0-2.59.65-3.08 1.87-.48 1.29-1.54 2.27-3.07 2.91-1.3-.32-2.68-.4-4.06-.24-1.45.16-2.59-.08-3.56-.73-2.51.97-4.86 2.03-6.89 3.32-2.03 1.3-4.38 2.19-6.89 2.84-4.78-.65-7.7-.89-8.75-.73-1.13.16-2.35.41-3.56.73-2.27-2.19-3.25-4.94-3.08-8.26.16-3.33-.73-6.33-2.68-8.84 0-3.16-.32-5.1-.89-5.91-.65-.81-.97-1.54-.97-2.11 0-.97.08-2.03.24-3.16.16-1.05.24-2.27.24-3.49 0-2.91-.16-5.1-.48-6.72.32-1.86.65-4.78.97-8.75.32-3.97.57-8.02.89-12.32.33-4.29.49-8.51.49-12.64v-9.97c0-1.54.32-2.92.97-3.97.65-1.13.97-2.51.97-4.05 0-2.51-.08-4.86-.24-6.89-.16-2.11-.24-4.21-.24-6.4 0-4.46.08-8.91.24-13.29.16-4.46.24-8.91.24-13.29 0-13.61-.73-26.98-2.19-40.11-1.37-13.21-2.1-26.42-2.1-39.71 0-7.29-.33-15.23-.97-23.99-.65-8.67-1.38-16.69-2.35-23.98 0-1.54-.25-2.92-.73-3.97a9.014 9.014 0 01-.73-3.57c-.33-3.81-.49-7.7-.49-11.67V80.71v-10.7-14.26c0-4.86.08-9.56.24-14.02.17-4.37.41-7.53.73-9.48 0-.32.98-.89 2.84-1.62 1.94-.81 3.16-1.21 3.81-1.21 1.62 0 2.83.48 3.81 1.45.97.9 2.02 1.87 3.32 2.84 1.3-.97 2.59-1.46 4.05-1.46h4.54c4.7-.97 7.62-.89 8.75.24 1.13 1.14 1.94 1.71 2.59 1.71.98 0 1.79-.49 2.43-1.46.57-.97 1.38-1.46 2.35-1.46 2.52 0 4.06.65 4.46 1.94.49 1.22 1.38 1.87 2.68 1.87 1.21 0 2.18-.49 2.83-1.38.65-.97 1.22-1.46 1.86-1.46.98 0 1.95.24 2.84.73.97.49 1.95.73 2.92.73 1.54 0 3.32-.57 5.18-1.7 1.87-1.14 3.65-1.95 5.27-2.59 2.51-.65 4.78-1.46 6.81-2.35 2.11-.98 4.21-1.79 6.48-2.44 4.7-2.83 8.27-4.62 10.62-5.43 2.43-.81 4.86-1.86 7.37-3.07 5.43-2.52 10.54-5.03 15.48-7.38 4.86-2.35 10.05-4.7 15.4-6.89 2.83 0 4.78-.64 5.67-1.86 2.27.89 5.1 1.05 8.59.49 3.81 3.4 6.24 6.15 7.37 8.02 1.05 1.94 2.43 3.64 3.97 5.27 1.95 2.51 3.24 3.72 3.81 3.72 0 .98-.49 2.11-1.38 3.33-.97 1.29-1.45 2.43-1.45 3.4zm128.68 19.93c0 2.84-.9 4.95-2.84 6.4-1.86 1.38-3.65 3.25-5.19 5.43-3.16 2.84-5.99 5.76-8.34 8.76-2.35 3.07-5.11 5.99-8.27 8.83-1.29 1.3-3.08 2.92-5.27 4.94-2.18 2.11-4.53 4.13-6.88 6.24-2.35 2.03-4.7 3.81-7.13 5.43-2.35 1.62-4.3 2.35-5.92 2.35-2.51 0-5.75-.81-9.72-2.59-3.97-1.7-7.38-2.92-10.21-3.57-2.19-.32-4.22-.56-5.92-.73-1.78-.16-3.4-.97-5.02-2.59-5.68-1.3-9.32-3.24-10.94-5.92-1.54-2.67-3.33-5.51-5.19-8.34 0-1.22.49-2.03 1.46-2.35.89-.33 1.7-.98 2.35-1.87 3.16-4.13 5.83-7.53 8.02-10.21 2.27-2.75 4.78-5.51 7.62-8.34a270.89 270.89 0 0015.48-14.75c4.86-5.03 10.05-9.81 15.39-14.18 2.51-.33 4.46-1.3 5.68-2.92 1.29-1.54 3.16-2.35 5.75-2.35 2.51 0 4.62.81 6.4 2.35 1.7 1.62 3.32 3.4 4.7 5.51 1.46 2.03 2.92 4.13 4.3 6.16 1.45 2.03 3.07 3.57 5.02 4.54 2.19 1.54 5.19 3.64 8.99 6.16 3.81 2.51 5.68 5.02 5.68 7.61zm-65.07 88.25c2.27 1.3 3.89 3 5.02 5.02 1.13 2.03 2.75 3.57 5.02 4.54 1.87.89 3.89 1.38 6.16 1.38 2.19 0 4.14.32 5.67.97 1.3.65 2.19 1.38 2.84 2.35.65.97 1.3 1.95 1.95 2.84 1.86 1.62 4.78 3 8.75 4.29 3.97 1.3 6.56 2.68 7.86 4.3 2.19 2.83 3.89 6.48 4.94 10.94 1.14 4.37 2.03 9.07 2.59 13.93.65 4.95 1.14 9.89 1.46 14.75.33 4.95.81 9.08 1.46 12.56.57 7.3 1.38 14.51 2.35 21.64.97 7.13 1.46 14.34 1.46 21.64 0 7.21-.32 14.66-.97 22.28-.65 7.62-.97 15.07-.97 22.28 0 3.81-.08 8.59-.25 14.27-.16 5.67-1.46 10.13-4.05 13.29-.32 1.29-.49 3.48-.49 6.64v15.24c0 1.86.17 3.8.49 5.67.32 1.86.49 3.97.49 6.16 0 3.48-.98 5.99-2.84 7.61-.97-.32-1.94-.48-3.08-.48h-3.08c-3.48 0-5.99.65-7.62 1.94-3.48-.32-6.8-.65-9.96-.97-3.16-.32-6.49-.49-9.97-.49-5.35 0-11.26.81-17.58 2.35a24.112 24.112 0 01-1.62-9.96c.16-3.49-.57-6.65-2.19-9.48-.33-.98-.57-1.79-.65-2.6-.16-.81-.24-1.7-.24-2.59.89-3.81 1.37-6.48 1.37-7.86v-4.54c0-4.37-.16-8.91-.48-13.53-.33-4.54-.17-9.08.48-13.53 0-1.54.25-3 .73-4.3.49-1.21.73-2.67.73-4.21 0-1.62-.32-2.68-.97-3.33-.65-.64-.97-1.45-.97-2.43 0-.89.08-2.51.24-4.7.16-2.18.57-3.64 1.22-4.29 0-2.51.08-4.94.24-7.37.16-2.35.24-4.62.24-6.89 0-5.03-.16-10.13-.48-15.16-.33-5.1-.49-9.96-.49-14.74 0-2.19-.16-3.65-.49-4.3-.32-.57-.65-1.05-.97-1.38-.24-.32-.73-.56-1.38-.73-.64-.16-1.13-.73-1.46-1.62 1.3-13.93.82-27.87-1.37-41.81-2.27-13.94-3.32-28.04-3.32-42.22 0-2.27.32-3.89.89-5.02.64-1.14 1.46-1.95 2.43-2.6.89-.65 1.78-1.37 2.59-2.19.81-.72 1.38-1.94 1.62-3.56 2.59.65 4.78.65 6.65 0zM833.36 10.45c3.48 0 5.99.41 7.53 1.38 1.62 3.16 2.68 5.92 3.08 8.35.49 2.35.73 5.1.73 8.26.33 4.78.41 8.19.25 10.21-.17 2.11-.41 4.22-.73 6.4-.33 5.11-.49 9.89-.49 14.51v14.51c0 11.02.16 22.28.49 33.7.32 11.35.48 22.61.48 33.72 0 4.37-.08 8.75-.24 13.04-.16 4.3-.24 8.59-.24 13.05 0 .97.08 1.94.24 3.08.16 1.13.24 2.11.24 3.08 0 2.83-.08 5.67-.24 8.34-.16 2.68-.24 5.27-.24 7.78v3.33c0 .97.16 2.26.48 3.8-.65 2.6-.97 4.3-.97 5.27 0 5.03.16 10.21.49 15.4.32 5.26.48 10.37.48 15.48 0 4.7.08 9.31.25 13.77.16 4.38.24 9 .24 13.7 0 2.59-.08 5.26-.24 8.1-.17 2.84-.25 5.67-.25 8.59 0 6.64.16 13.37.49 20.18.32 6.8.65 13.53.97 20.17v13.05c0 4.21.33 8.59.89 13.05 0 5.02-.16 8.75-.65 11.18-.48 2.35-1.05 4.62-1.7 6.81-2.51.65-4.21.89-4.94.73-.81-.17-1.7-.25-2.68-.25-4.37 1.3-7.21 2.52-8.5 3.57-1.3 1.13-2.68 2.35-4.3 3.56-1.21 0-2.75.08-4.46.25-1.78.16-3.16.73-4.05 1.7-1.62-.65-2.83-.81-3.81-.49-.97.33-1.94.49-2.83.49-4.46.32-7.46.81-9.08 1.62-1.54.81-3.73 1.22-6.64 1.22-2.51-4.14-4.38-7.38-5.67-9.73-1.3-2.43-3.33-3.4-6.16-3.08-4.14-6.32-7.05-12.96-8.84-19.93a54.498 54.498 0 00-8.75-19.05c-.32-2.51-.81-4.13-1.46-4.7-.56-.64-1.21-1.94-1.86-3.8-1.3-2.6-2.35-5.27-3.32-8.11-.97-2.83-2.19-5.51-3.81-8.02-2.51-5.43-5.03-10.7-7.62-15.96-2.51-5.19-4.86-10.7-7.05-16.37-.97-2.51-1.78-5.11-2.43-7.86-.65-2.68-1.38-5.27-2.35-7.78-.65-1.3-1.38-2.6-2.11-3.81-.81-1.3-1.54-2.35-2.18-3.32-1.87-3.49-3.73-6.97-5.43-10.46-1.79-3.48-3.73-6.97-5.92-10.45-.65-1.62-1.54-3.08-2.67-4.54-1.06-1.38-2.27-2.92-3.57-4.46-.89-2.26-1.78-4.45-2.59-6.64-.81-2.27-1.62-4.46-2.6-6.64-.64-1.95-1.62-3.89-2.83-6-1.3-2.03-2.27-3.97-2.84-5.92-.65-1.54-1.13-3.16-1.46-4.7-.32-1.62-1.29-3.08-2.83-4.29-2.19 3.81-3.33 6.32-3.33 7.62-.32 3.72-.56 6.8-.72 9.23-.17 2.35-.25 4.46-.25 6.41 0 2.18.25 4.37.73 6.4.49 2.02.73 4.05.73 5.91.65 7.62 1.05 15.32 1.38 23.02.32 7.78.49 15.47.49 23.09-.33 6-.41 10.54-.25 13.78.16 3.16.41 6.32.73 9.48.33 3.16.41 6.4.24 9.72-.16 3.32-.08 6.57.25 9.73 0 7.29.08 14.34.24 21.15.16 6.8.24 13.85.24 21.07v11.42c0 3.49-.48 6.65-1.45 9.48-4.7 0-7.78-.16-9.24-.48-1.46-.25-2.92-.73-4.54-1.38-1.86.32-3.4.97-4.46 2.1-1.13 1.14-2.51 2.19-4.05 3.08-3.48-.32-5.43-.24-5.75.25-.25.48-.89 1.05-1.87 1.7-.97.32-1.78.32-2.59 0-.81-.33-1.7-.49-2.59-.49-2.6-.65-4.62-.97-6.24-.97-1.87.65-3.65 1.3-5.43 1.95a38.5 38.5 0 01-5.43 1.37c-1.95-3.48-3-7.61-3.32-12.31-.33-4.79-1.62-8.92-3.81-12.4.65-1.22.97-2.03 1.13-2.35.16-.33.25-1.22.25-2.84 0-7.29-.17-14.59-.49-21.88-.24-7.21-.41-14.5-.41-21.8 0-5.99-.4-11.91-1.21-17.58-.81-5.67-1.22-11.51-1.22-17.59 0-1.86.16-3.8.49-5.67.32-1.86.49-3.97.49-6.16 0-.97-.09-1.94-.25-2.83-.16-.97-.24-1.79-.24-2.43-.65-5.68-1.05-11.51-1.14-17.51-.16-6.07-.24-12.07-.24-18.07-.32-3.48-.57-7.13-.73-10.94-.16-3.81-.24-7.78-.24-11.83 0-1.62.16-3.32.49-5.27.32-1.86.48-3.8.48-5.67V158.1c-.65-3.81-.89-6.32-.73-7.62.16-1.3.25-2.51.25-3.81 0-2.83-.25-5.59-.73-8.26-.49-2.76-.73-5.68-.73-8.84 0-2.18.24-4.29.73-6.4.48-2.02.73-4.21.73-6.4 0-4.78-.25-9.32-.73-13.78-.49-4.45-.73-8.99-.73-13.77V48.86c0-2.18-.17-4.45-.49-6.64-.32-2.19-.49-4.62-.49-7.13 1.95-4.38 3.65-6.73 5.27-6.89 1.54-.16 3-.65 4.3-1.62 3.48.65 6.48.32 8.99-.97 4.13.32 6.65-.17 7.62-1.38.65.57 1.46.81 2.59.65 1.14-.17 2.11-.08 3.08.24.97-.65 1.78-1.22 2.35-1.86.65-.65 1.62-1.3 2.92-1.95 3.4-1.86 5.51-3.08 6.16-3.56.56-.41 1.37-.98 2.35-1.62 1.54 0 2.59.48 3.08 1.37.48.98 1.54 1.46 3.08 1.46.64 1.3 1.45 2.51 2.35 3.81a9.8 9.8 0 003.32 2.84c2.59 5.34 5.59 9.96 9.07 13.77a220.64 220.64 0 009.73 23.75c3.64 7.61 7.53 15.15 11.59 22.77 0 .97.16 2.18.48 3.56.33 1.46.65 2.43.97 3.08 1.62 3.48 3.89 8.02 6.89 13.53 3 5.59 5.59 10.05 7.86 13.54.57 1.29 1.38 2.43 2.35 3.32.97.97 1.7 2.11 2.35 3.32a25.19 25.19 0 012.43 5.27 21.81 21.81 0 002.35 5.18c1.54 3.81 3.41 7.54 5.43 11.19 2.11 3.64 4.22 7.37 6.41 11.18.64 1.86 1.37 3.73 2.18 5.67a56.08 56.08 0 002.6 5.67c2.51 5.76 4.86 10.05 6.88 13.05 2.03 3 3.57 6.24 4.54 9.73 2.19 2.59 3.89 5.34 5.19 8.34 1.29 3 3.16 5.43 5.67 7.38.32-1.62.65-6.24.97-14.02.33-7.78.49-16.21.49-25.45v-26.09-16.61c0-8.51-.16-17.02-.49-25.37-.32-8.42-.48-16.69-.48-24.96 0-6.64.08-13.37.24-20.17.16-6.81.41-13.53.73-20.18.32-3.48.4-6.73.24-9.72-.16-3-.08-6.08.25-9.24.32-1.62.89-3.16 1.86-4.78.97-1.54 1.78-3.16 2.43-4.78 4.05-.57 7.21.16 9.48 2.43 1.87-.98 4.13-1.46 6.89-1.46 2.67 0 4.94-.16 6.89-.49 2.51-.32 3.89-.57 4.21-.73.32-.08.81-.16 1.46-.16 1.3.57 2.43 1.05 3.56 1.38 1.14.32 2.44.81 4.06 1.46 2.83-.98 5.18-.81 7.13.48zm89.7 348.94c-.97.65-1.94 1.29-2.91 1.94-.9.57-1.87 1.22-2.84 1.87-3.49 1.94-6.65 2.91-9.48 3.07-2.84.17-6 1.87-9.48 5.03-1.3-1.62-2.19-2.43-2.84-2.43h-3.32c-4.13 0-6.49-1.06-7.13-3.32-1.3.32-3.24 1.13-5.92 2.43-2.75 1.21-4.7 2.18-6 2.83 2.92-4.13 4.79-7.29 5.76-9.48.89-2.27 1.46-4.29 1.62-6.24.16-1.86.32-3.81.49-5.91.16-2.03.89-4.95 2.18-8.76.57-1.29 1.06-2.51 1.38-3.8.32-1.3.81-2.68 1.46-4.3 1.54-4.7 2.92-10.13 3.97-16.12 1.13-6 3-11.27 5.51-15.64 0-5.43 1.13-10.46 3.57-15.24 2.35-4.7 4.29-9.64 5.91-14.75.65-1.86 1.54-3.72 2.59-5.67 1.14-1.86 2.03-3.81 2.6-5.67 1.29-3.16 2.35-6.24 3.16-9.24.73-3 1.62-6 2.59-8.83 2.51-9.16 5.03-18.24 7.62-27.31 2.51-9 4.86-18.07 7.05-27.31.32-1.54.73-3.32 1.21-5.19.49-1.94 1.06-3.64 1.71-5.18 1.54-4.78 2.59-9.65 3.07-14.51.49-4.94 1.95-9.56 4.46-14.02-.32-2.18-.24-4.29.24-6.15.49-1.95 1.06-3.98 1.71-6.16.64-2.27 1.21-4.3 1.86-6.24.65-1.87 1.14-3.33 1.46-4.22 1.54-4.13 2.75-7.86 3.56-11.18.73-3.32 2.44-6.89 4.95-10.7 0 0 .48-1.62 1.46-4.94.97-3.32 2.02-7.05 3.32-11.18 1.21-4.13 2.35-8.02 3.32-11.67.97-3.65 1.38-5.75 1.38-6.4.65-2.51 1.21-4.86 1.7-7.13.49-2.19 1.05-4.54 1.62-7.05.65-1.62 1.3-3 1.95-4.06.64-1.13 1.29-2.51 1.86-4.05.97-3.48 1.94-7.78 2.84-12.8.97-5.1 2.27-9.08 3.8-11.91.98-2.19 2.84-4.05 5.51-5.43 2.68-1.46 4.95-2.92 6.89-4.54 5.67.65 9.89.32 12.56-.97 2.68-1.22 5.27-2.84 7.86-4.7 1.54.32 3.08.73 4.46 1.13 1.46.49 2.92.73 4.54.73 5.99 6.65 10.21 13.45 12.56 20.42 2.43 6.97 4.7 13.94 6.89 20.91.97 3.48 1.94 6.89 2.83 10.21.97 3.32 2.11 6.56 3.32 9.72.33.98.82 2.03 1.46 3.08.65 1.14 1.3 2.35 1.87 3.57 1.62 2.51 3 5.27 4.05 8.1 1.13 2.84 2.19 5.67 3.08 8.51 1.94 2.27 3.32 4.86 4.29 7.86.98 3 1.87 6 2.6 9 .81 2.99 1.7 5.91 2.59 8.59.97 2.67 2.43 4.94 4.29 6.88.65 3.49 1.79 6.89 3.33 10.21 1.62 3.33 2.67 6.89 3.32 10.7 1.94 2.51 4.13 7.29 6.64 14.42 2.6 7.14 5.11 14.83 7.62 23.02 2.51 8.26 4.94 16.21 7.13 23.74 2.19 7.62 3.81 12.97 4.78 16.21.57 2.51 1.87 5.75 3.73 9.72 1.95 3.97 3.65 7.46 5.27 10.7 1.21 3.4 2.59 7.05 4.05 10.86 1.38 3.81 2.59 7.45 3.57 10.94.56 3.48 1.29 6.8 2.1 9.96.81 3.16 1.62 6.49 2.6 9.97.64 2.19 1.62 4.22 2.83 5.92 1.3 1.78 2.27 3.89 2.84 6.48 1.29 2.51 2.19 4.86 2.67 7.05.49 2.27 1.46 4.62 3.08 7.13-.32 3.49-.16 5.75.49 6.65.65.97 1.21 2.1 1.86 3.32 1.3 6.64 2.68 11.99 4.3 15.96 1.54 3.89 2.35 8.11 2.35 12.56 0 3.81-.73 6.16-2.11 7.13-1.46.89-3.24 2.52-5.51 4.7-2.51 2.27-4.62 3.97-6.4 5.27-1.71 1.22-4.3 1.86-7.78 1.86-3.81-.32-6.16.25-6.89 1.71-.81 1.37-1.38 2.43-1.7 3.08-3.81-.33-6.24-.41-7.38-.25-1.05.16-2.18.25-3.32.25-1.05 0-2.19.24-3.32.72-1.05.49-2.27 1.46-3.57 3.08-2.18-2.59-4.29-4.86-6.4-6.88-2.02-2.11-3.89-4.38-5.43-6.89 0-5.43-.73-11.75-2.19-19.04-1.37-7.22-2.91-12.97-4.45-17.02-3.16-8.27-6.08-16.37-8.84-24.23-2.67-7.94-5.26-16.05-7.77-24.23-.98-3.49-2.03-6.65-3.08-9.48-1.14-2.92-2.35-5.92-3.57-9.08.65 2.6.81 5.19.73 7.86-.16 2.68-1.05 5.27-2.67 7.86-.65.65-1.54 1.38-2.84 2.35-1.3.98-1.86 1.7-1.86 2.35-3.81 3.16-7.14 6.16-9.97 9.08.32 5.67-.49 9.64-2.43 11.83-1.87 2.19-3.89 4.29-6.16 6.16-5.35.32-8.67 0-9.97-.89-1.29-.98-3-1.62-5.18-1.95-1.3-.32-2.6-.4-3.81-.24-1.3.16-2.51.24-3.81.24-2.51 0-4.95-.65-7.13-1.86-.98-.65-1.62-1.3-2.11-1.95-.49-.64-1.05-1.21-1.7-1.86-2.51-2.51-5.43-4.7-8.75-6.4-3.33-1.78-6.57-3.24-9.73-4.54-2.59-2.19-5.18-4.54-7.86-6.89-2.67-2.35-5.43-4.37-8.34-5.91-2.52 5.99-4.46 11.26-5.92 15.88-1.38 4.62-3.08 9.08-4.94 13.53-3.49 10.78-6.32 20.18-8.59 28.28-2.19 8.03-4.7 16.21-7.62 24.48-1.21.24-2.43.73-3.57 1.37-1.05.65-2.43.98-3.97.98l-3.32-1.46zm46.52-101.13c2.51-4.46 4.78-6.89 6.88-7.38 2.03-.4 3.89-1.62 5.43-3.56.65-.57 1.38-1.38 2.19-2.35.73-.98 1.62-1.87 2.59-2.84.98-.65 2.03-1.3 3.33-1.95 1.21-.56 2.35-1.37 3.32-2.34 2.51-2.19 4.62-4.14 6.4-5.68 1.7-1.62 4.38-2.35 7.86-2.35 5.35 0 9.81 1.3 13.29 3.97 3.48 2.76 7.7 4.54 12.8 5.51.65 1.87 2.68 3.25 6.16 4.06 3.49.73 6.16 1.78 8.11 3.08-3.16-7.95-5.68-15.97-7.38-23.99-1.78-8.1-3.89-16.05-6.4-23.99-1.94-6.97-4.13-13.85-6.65-20.66-2.51-6.81-5.1-13.37-7.61-19.69-2.19-6.32-4.14-12.48-5.67-18.56-1.63-6-3.65-11.83-6.24-17.5-2.52 5.67-5.03 12.64-7.54 20.82-2.59 8.27-4.46 15.56-5.75 21.88 0 2.84-.17 5.03-.41 6.65-.65 2.19-1.3 4.21-1.94 5.91-.65 1.79-1.22 3.57-1.87 5.51-4.13 12.32-7.86 24.8-11.18 37.44a473.561 473.561 0 01-11.67 38.01h1.95zm203.23 114.42c-1.3-1.22-1.95-3-1.95-5.19 0-1.62.09-2.92.25-4.05.16-1.14.4-2.43.73-4.05 1.62-7.3 2.35-14.59 2.35-22.04 0-7.46.32-14.83.97-22.13.32-4.37.57-8.83.73-13.29.16-4.37.24-8.83.24-13.29 0-26.25-.81-52.43-2.35-78.6-1.62-26.09-2.43-52.43-2.43-79.01 0-18.39.33-36.79.97-55.34.65-18.48 1.14-37.12 1.46-55.76 2.84-1.62 6.32-2.26 10.37-1.94 4.14.32 7.46-1.05 10.05-4.21 1.54-.33 3.16-.41 4.7-.25 1.62.16 3.16.25 4.78.25 3.49 0 6.81-1.14 9.97-3.33 3.16-2.27 6.65-4.13 10.45-5.75 1.87.65 3.25.89 4.06.73.73-.16 1.62-.24 2.59-.24.89 0 3 1.13 6.16 3.32 3.16 2.27 6.64 4.78 10.45 7.62 3.81 2.83 7.38 5.51 10.7 8.1 3.32 2.51 5.43 4.05 6.4 4.7 7.86 6 14.91 12.56 21.07 19.69 6.24 7.13 12.32 14.34 18.31 21.64 5.67 7.29 11.91 14.66 18.56 22.04 6.64 7.45 13.13 14.34 19.45 20.66 2.19 2.51 4.45 4.78 6.88 6.65 2.35 1.94 4.62 4.13 6.89 6.64.89 1.3 1.79 2.59 2.6 4.05s1.62 2.92 2.59 4.54c1.94 2.19 4.13 4.13 6.64 5.67 2.6 1.62 4.95 3.49 7.13 5.68 1.63 1.29 3.98 3.8 7.14 7.61 3.16 3.81 4.78 6.65 4.78 8.59 0 1.22-.33 2.35-.98 3.32-.64.9-1.29 2.03-1.94 3.33-.24.89-.4 2.35-.4 4.21 0 1.95-.17 3.16-.49 3.81-3.16 2.51-4.95 4.13-5.27 4.78-.32.65-.73 1.22-1.38 1.86-.97 1.3-2.18 2.35-3.56 3.08-1.46.81-2.43 2.03-3.08 3.57-.65.97-.89 1.94-.73 2.84.16.97-.08 2.1-.73 3.32-1.54 3.48-4.13 6.8-7.62 10.05a56.953 56.953 0 00-8.99 10.37c-3.49 5.75-6.97 11.42-10.45 17.1-3.49 5.75-7.46 11.26-11.84 16.61-1.94 2.59-3.89 5.02-5.99 7.37-2.03 2.43-3.97 4.87-5.92 7.38-1.54 1.94-3 3.89-4.29 5.91-1.22 2.11-2.68 4.38-4.22 6.89-3.48 4.46-6.8 8.83-9.96 13.05a572.85 572.85 0 01-9.97 13.12c-3.81 5.35-7.94 10.62-12.4 15.89-4.38 5.18-8.35 10.53-11.83 15.88-3.49 5.67-7.13 10.94-10.94 15.64-3.81 4.78-7.94 9.4-12.32 13.78-1.29.97-2.83 2.43-4.78 4.29-1.86 1.95-3.81 2.84-5.67 2.84-1.3 0-2.35-.49-3.08-1.38-.81-.97-2.03-1.46-3.57-1.46-.32 0-1.29.16-2.83.49-1.62.32-3.49.64-5.76.97l-8.5.89c-5.11 2.59-8.76 3.73-10.94 3.57-2.19-.17-4.46-.08-6.65.24-1.3.32-2.27.81-3.08 1.46-.81.65-1.7.97-2.59.97-2.27 0-3.97-1.05-5.27-3.08-1.21-2.11-3.16-3-5.67-2.67zm142.46-205.1c0-1.62-1.54-3.81-4.54-6.65-3-2.83-5.27-4.94-6.89-6.16-2.19-1.94-4.86-3.72-7.86-5.51-3-1.7-5.43-3.64-7.29-5.91a63.181 63.181 0 01-4.54-5.92c-1.46-2.02-2.92-4.05-4.54-5.91-5.67-6.32-11.42-12.72-17.34-19.04-5.83-6.33-10.94-13.29-15.4-20.83a61.857 61.857 0 01-8.1-6.65c-2.51-2.59-5.51-4.61-8.99-6.24-.65 1.95-.89 3.89-.73 6 .16 2.03.24 3.97.24 5.92 0 7.29-.32 14.42-.97 21.31-.57 6.97-.89 13.94-.89 20.91 0 17.09.4 33.95 1.13 50.56.81 16.61 1.22 33.31 1.22 50.08 0 6.4.08 12.72.24 19.04.16 6.32.73 12.64 1.62 18.97-.57 1.94-.89 3.64-.89 5.26 0 1.54.32 3.65.89 6.16 2.59-1.62 4.7-3.56 6.48-5.91 1.71-2.43 3.41-4.7 4.95-6.89 5.34-6.97 10.69-14.02 15.88-21.15 5.27-7.13 10.53-14.34 15.96-21.64 3.49-4.7 7.05-9.4 10.62-14.02 3.64-4.54 7.21-9.4 10.7-14.42.97-1.3 2.51-3.49 4.53-6.65 2.03-3.16 4.14-6.4 6.16-9.72 2.11-3.32 3.97-6.48 5.67-9.32 1.79-2.84 2.68-4.7 2.68-5.67zM1641.43 178.52c-.65 1.21-1.29 2.43-1.94 3.56-.57 1.06-1.06 2.27-1.38 3.57 1.21 1.22 2.43 2.59 3.56 3.97 1.06 1.46 1.63 3 1.63 4.54 0 1.29-.25 2.43-.73 3.56-.41 1.14-.49 2.11-.17 3.08-1.29 2.27-2.67 4.3-4.05 6.16-1.46 1.95-2.51 3.97-3.08 6.24-1.29 1.22-2.35 2.51-3.08 3.73-.81 1.3-1.54 2.59-2.18 3.81-1.54.65-2.6 1.7-3.08 3.08a7.215 7.215 0 01-2.6 3.56c-.32 1.3-1.94 4.3-4.78 9.08-2.83 4.7-5.99 9.8-9.48 15.15-3.48 5.43-6.81 10.62-9.97 15.72-3.16 5.03-5.34 8.35-6.64 9.97-.65 1.54-1.38 2.84-2.11 3.73-.81.97-1.7 2.1-2.67 3.32-.57.97-1.06 2.03-1.38 3.16-.32 1.05-.81 1.94-1.46 2.59-.65 1.22-1.29 2.35-2.1 3.32-.82.98-1.54 2.19-2.11 3.81-3.24 4.06-6.4 9-9.56 14.67-3.16 5.75-6.16 10.78-9 15.23-1.62 2.52-3.08 5.03-4.54 7.62-1.37 2.51-2.91 5.03-4.45 7.54-1.62 2.59-3.16 4.94-4.79 7.13-1.53 2.27-3.16 4.62-4.78 7.13-2.51 1.95-4.7 4.21-6.64 6.89-1.86 2.67-4.05 5.02-6.65 6.89-4.05 0-6.64-1.87-7.53-5.68-4.13-.97-6.16-.97-6.16 0V367c-1.3.65-2.19 1.62-2.67 2.84-.49 1.3-1.3 2.19-2.6 2.84-2.51-.65-4.7-1.62-6.4-3.08-1.78-1.38-4.21-1.95-7.37-1.62-1.22-1.95-2.68-3.57-4.3-5.03-1.54-1.37-3-2.91-4.21-4.45-.65-1.95-1.54-3.49-2.68-4.79-1.05-1.29-2.1-2.51-3.08-3.8-.89-1.62-1.86-3-2.83-4.3-.97-1.21-1.87-2.51-2.84-3.81-2.19-2.83-4.37-5.59-6.4-8.26-2.03-2.68-3.89-5.51-5.43-8.35-2.59-3.81-5.02-7.62-7.37-11.59-2.43-3.97-4.86-7.86-7.38-11.67-1.29-1.86-2.51-3.81-3.81-5.67-1.29-1.94-2.35-3.81-3.32-5.67-.65-1.62-1.54-3.49-2.59-5.75-1.14-2.19-2.43-3.65-4.05-4.22-.65-2.59-1.79-4.46-3.33-5.75-1.62-1.22-3.16-2.84-4.78-4.7-2.18-2.6-4.21-5.35-6.15-8.35-1.87-3-3.81-6.08-5.68-9.24a881.94 881.94 0 01-17.82-26.09c-5.52-8.59-11.03-17.42-16.37-26.66 1.62-5.02 2.35-8.83 2.35-11.34 0-2.52.81-4.62 2.43-6.16 0-1.3.32-3.16.89-5.76 4.13-6.97 8.1-13.29 11.91-18.96 3.48-5.35 5.92-9.8 7.37-13.29 1.38-3.48 2.92-7.13 4.46-10.94 1.62-.97 2.84-2.1 3.81-3.56.97-1.38 2.27-2.76 3.81-4.06.65-3.48 2.02-6.4 4.29-8.75 2.19-2.35 3.65-5.26 4.3-8.75 2.83-2.27 4.37-4.78 4.7-7.62 4.13-2.83 6.64-6.64 7.62-11.42 2.51-2.51 4.61-5.35 6.4-8.51 1.7-3.16 3.4-6.48 4.94-9.97 3.81-3.16 6.81-7.29 9.08-12.4 1.86-1.21 3.32-2.99 4.29-5.18.89-2.19 2.19-4.13 3.73-5.67 2.59-4.14 4.54-7.54 5.99-10.22 1.38-2.75 2.92-5.5 4.46-8.34 2.27 0 3.65-.81 4.3-2.35.65-1.62 1.94-2.27 3.81-1.95 0-2.83.81-5.34 2.35-7.53.64-.33 1.62-.73 2.83-1.22 1.3-.48 1.95-1.05 1.95-1.7-.65-3.73-.49-6 .48-6.64.89-.57 1.7-1.22 2.35-1.87 3.49.65 5.84 1.14 7.13 1.46 1.3.24 3.33 1.38 6.16 3.32 3.16 0 5.35.57 6.65 1.87 1.29 1.29 2.67 2.19 4.29 2.83 1.22 1.3 2.27 2.52 3.08 3.81.81 1.3 1.95 2.19 3.57 2.84 2.51 3.48 5.18 7.29 8.02 11.42 2.92 4.14 5.59 7.86 8.1 11.35 3.49 4.78 7.05 9.32 10.7 13.53 3.65 4.3 7.05 9 10.21 14.02.97 1.62 2.67 4.38 5.19 8.35 2.59 3.97 5.42 8.1 8.59 12.56 3.16 4.45 5.99 8.51 8.5 12.15 2.6 3.57 4.3 5.75 5.27 6.4.89 1.54 3 4.54 6.16 9s6.56 9.07 10.21 14.02c3.65 4.86 7.21 9.56 10.7 14.02 3.48 4.37 5.83 7.29 7.13 8.51 3.48 4.78 6.08 8.67 7.78 11.66 1.78 3 3.4 6.24 5.02 9.73zm-108.75 89.22c3.49-4.7 6.16-9 8.11-12.81 1.86-3.81 3.72-7.61 5.67-11.34 3.16-3.81 5.02-6.57 5.67-8.1.65-1.63 1.46-3.16 2.43-4.79 2.51-3.8 5.11-7.53 7.78-11.34 2.68-3.81 4.86-7.94 6.4-12.4 1.95-1.21 3.33-2.83 4.3-4.7.97-1.94 2.35-3.65 4.29-5.27-1.94-6.64-4.13-11.75-6.64-15.39-2.51-3.65-5.11-7.21-7.62-10.7-.97-1.54-1.86-3.16-2.84-4.78a146.4 146.4 0 01-2.83-4.7c-1.3-.97-2.35-1.94-3.08-2.84-.81-.97-1.7-1.94-2.68-2.83-.56-1.62-1.53-3.65-2.83-6.24-1.22-1.54-2.51-3-3.81-4.22-1.22-1.29-2.35-2.91-3.32-4.78-1.22-1.29-2.84-3-4.7-5.18-1.95-2.27-3.89-4.7-5.92-7.38-2.1-2.67-3.89-5.26-5.51-7.61-1.54-2.35-2.83-4.38-3.81-5.92-.65-1.62-1.13-2.92-1.62-4.05-.48-1.14-1.05-2.27-1.7-3.57a62.284 62.284 0 00-4.7-5.91c-1.62-1.79-3.16-3.73-4.78-5.92-.97.57-1.78.97-2.59 1.14-.81.16-1.54.56-2.19 1.21a81.023 81.023 0 01-7.29 11.35c-2.76 3.48-5.35 7.29-7.86 11.42-2.19 3.81-4.46 7.7-6.65 11.67-2.19 3.89-4.46 7.78-6.64 11.59-1.62 2.27-3.08 4.38-4.54 6.4-1.38 2.11-2.92 4.38-4.46 6.89-1.62 2.27-3 4.54-4.05 6.89-1.14 2.43-2.51 4.7-4.05 6.88-2.51 3.17-4.62 6-6.16 8.59-1.62 2.52-3.16 5.51-4.78 9 .97 1.86 2.43 4.54 4.54 7.86 2.02 3.32 4.21 6.64 6.4 9.97 2.19 3.32 4.21 6.4 5.91 9.24 1.79 2.83 2.76 4.78 3.08 5.67 2.6 2.27 4.62 4.7 6.16 7.37 1.62 2.68 3.65 5.35 6.24 7.86 1.22 2.51 2.68 4.7 4.21 6.65 1.63 1.86 3.16 3.97 4.79 6.16 1.53 2.18 3.64 5.42 6.15 9.72 2.52 4.29 5.11 8.67 7.62 13.05 2.51 4.45 5.03 8.59 7.62 12.39 2.51 3.73 4.54 6.16 6.16 7.05 3.16-3.48 5.75-7.29 7.78-11.58 2.1-4.3 4.86-8.19 8.34-11.67zm240.68-253.96c2.26 4.05 3.4 8.83 3.4 14.18 0 4.78-.97 9.8-2.92 15.23-1.86 5.35-4.86 9.48-8.99 12.32-2.84 6.32-5.59 11.5-8.35 15.48-2.67 3.89-5.27 7.77-7.78 11.58-.97 2.27-1.94 4.38-2.84 6.41-.97 2.1-2.26 4.21-3.8 6.4-.98 1.62-3 4.78-6.16 9.56-3.16 4.7-6.4 9.72-9.81 14.91-3.32 5.27-6.24 10.21-8.75 14.99-2.51 4.7-3.81 7.7-3.81 9 0 1.29 1.54 2.83 4.54 4.78 3 1.86 4.94 3.32 5.92 4.21 1.62 1.62 3.08 3.16 4.53 4.78 1.38 1.62 2.92 3.16 4.46 4.78 3.48 2.84 6.89 5.67 10.21 8.51 3.32 2.84 6.73 6 10.21 9.48 6.65 6 13.61 11.75 20.91 17.1a101.03 101.03 0 0119.45 19.04c5.43 1.54 8.91 5.35 10.45 11.35 1.62 5.99 2.11 11.75 1.46 17.1.65.97 1.21 1.94 1.62 2.83.48.98 1.05 2.11 1.7 3.32 0 5.11-.73 8.84-2.11 11.19-1.46 2.35-2.99 5.26-4.53 8.75-1.62 3.16-2.6 6.4-3.08 9.56-.49 3.16-1.54 6-3.08 8.51-.65.97-1.54 1.7-2.6 2.35-1.13.65-2.02 1.62-2.67 2.84-1.22 2.26-2.27 4.86-3.08 7.86s-1.78 5.75-3.08 8.34c-.97 2.51-2.11 5.03-3.56 7.54-1.38 2.59-2.6 5.1-3.57 7.62-.65 1.62-1.13 3.48-1.62 5.75-.49 2.19-2.03 3.73-4.54 4.7-1.54 5.67-3.73 11.26-6.4 16.61-2.67 5.43-4.86 10.94-6.4 16.61-2.84.98-6.4 2.76-10.7 5.51-4.29 2.68-7.7 3.98-10.21 3.98-.97 0-1.7-.41-2.35-1.38-.65-.97-1.62-1.78-2.84-2.35-.64-.33-1.53-.33-2.67 0-1.05.32-1.94.4-2.59.4-1.54 0-2.76-.56-3.57-1.86s-1.78-2.19-3.08-2.84c-.97.33-1.86.65-2.83.98-.98.24-1.87.4-2.84.4-2.27 0-3.48-.49-3.81-1.62-.32-1.14-1.29-2.11-2.83-3.08-3.81-1.94-6-3.65-6.65-5.27-.65-1.54-1.62-2.67-2.83-3.32 2.18-8.18 5.18-16.04 8.99-23.5 3.81-7.37 7.45-14.91 10.94-22.53.89-2.51 2.11-4.94 3.56-7.13 1.38-2.19 2.76-4.62 3.98-7.13.97-2.19 2.43-5.02 4.29-8.51 1.94-3.48 3.65-7.13 5.27-10.94 1.54-3.81 3-7.37 4.21-10.69 1.3-3.33 1.95-6.08 1.95-8.27 0-4.46-1.3-7.78-3.81-9.97-9.16-7.61-17.83-15.39-25.85-23.33-8.11-7.86-16.61-15.97-25.45-24.15-5.67-5.11-11.83-10.29-18.47-15.72-1.3-.89-2.27-2.35-2.92-4.22-.57-1.94-1.54-3.64-2.84-5.26-.65-1.3-1.54-2.19-2.83-2.84a6.822 6.822 0 01-2.84-2.84c-.97-1.29-1.62-2.75-1.94-4.53-.25-1.71-1.22-3.08-2.84-4.06-1.54-1.54-3.48-2.51-5.67-2.83-2.19-.33-4.13-1.22-5.67-2.84.89-.97 1.29-1.94 1.13-3.08-.16-1.13-.24-2.11-.24-3.08 0-2.27.97-3.81 2.91-4.78 1.87-.97 2.84-2.67 2.84-5.18 1.22-2.6 2.19-4.14 2.84-4.79 3.48-8.5 7.45-16.77 11.83-24.63 4.45-7.94 9.07-15.88 13.77-23.82 1.62-2.52 3.08-4.95 4.54-7.3 1.46-2.43 2.92-4.86 4.54-7.37.89-2.19 1.78-4.22 2.59-5.92.81-1.78 1.95-3.4 3.57-5.02 4.45-5.02 8.1-9.81 11.18-14.26 3-4.38 5.27-9.81 6.89-16.13.24-1.54.89-3.81 1.86-6.64.97-2.84 2.11-5.68 3.57-8.51 1.38-2.92 2.91-5.43 4.54-7.62 1.53-2.19 3.32-3.32 5.18-3.32 1.62 0 3.89.65 6.89 1.86 3 1.3 5.59 2.27 7.86 2.84 1.86.65 3.81 1.21 5.92 1.7 2.02.49 4.05.73 5.91.73 1.3 0 2.51-.41 3.81-1.22 1.3-.81 2.67-1.21 4.29-1.21 2.52 0 4.87.4 7.14 1.21 2.18.81 4.53 1.38 7.05 1.71z"/></g><path class="fil0" d="M800.86 516.65v14.53h-53.4v-66.5h52.16v14.53h-33.54v11.22h29.55v14.06h-29.55v12.16h34.78zm33.82 15.86c-5.38 0-10.61-.66-15.68-1.99-5.06-1.33-9.18-3.1-12.35-5.32l6.18-13.87c2.98 1.96 6.43 3.54 10.35 4.75 3.93 1.2 7.8 1.8 11.6 1.8 7.22 0 10.83-1.8 10.83-5.41 0-1.9-1.03-3.31-3.09-4.23-2.06-.92-5.37-1.88-9.93-2.9-5-1.07-9.18-2.23-12.54-3.47-3.36-1.23-6.24-3.21-8.65-5.93-2.4-2.73-3.61-6.4-3.61-11.03 0-4.05 1.11-7.71 3.33-10.97 2.22-3.26 5.52-5.84 9.93-7.74 4.4-1.9 9.8-2.85 16.2-2.85 4.37 0 8.67.49 12.92 1.47 4.24.98 7.98 2.42 11.21 4.32l-5.8 13.97c-6.33-3.42-12.47-5.13-18.43-5.13-3.74 0-6.46.55-8.17 1.66-1.71 1.11-2.56 2.55-2.56 4.33 0 1.77 1.01 3.1 3.04 3.99 2.02.88 5.28 1.8 9.78 2.75 5.07 1.08 9.26 2.23 12.59 3.47 3.33 1.23 6.21 3.2 8.65 5.89 2.43 2.69 3.65 6.35 3.65 10.97 0 3.99-1.1 7.6-3.32 10.83-2.22 3.23-5.54 5.81-9.98 7.75-4.43 1.93-9.82 2.89-16.15 2.89zm71.26 0c-6.97 0-13.22-1.47-18.77-4.41-5.54-2.95-9.89-7.05-13.06-12.31-3.17-5.25-4.75-11.21-4.75-17.86 0-6.65 1.58-12.6 4.75-17.86s7.52-9.36 13.06-12.3c5.55-2.95 11.8-4.42 18.77-4.42 6.08 0 11.56 1.07 16.44 3.23 4.87 2.15 8.93 5.25 12.16 9.31l-11.97 10.83c-4.31-5.19-9.54-7.79-15.68-7.79-3.61 0-6.83.79-9.64 2.37-2.82 1.59-5.01 3.82-6.56 6.7-1.55 2.88-2.33 6.19-2.33 9.93 0 3.74.78 7.05 2.33 9.93s3.74 5.11 6.56 6.7c2.81 1.58 6.03 2.37 9.64 2.37 6.14 0 11.37-2.59 15.68-7.79l11.97 10.83c-3.23 4.06-7.29 7.16-12.16 9.31-4.88 2.16-10.36 3.23-16.44 3.23zm66.89 0c-9.88 0-17.56-2.69-23.04-8.07-5.48-5.38-8.22-13.02-8.22-22.9v-36.86h18.81v36.29c0 10.64 4.21 15.96 12.64 15.96 8.36 0 12.54-5.32 12.54-15.96v-36.29h18.53v36.86c0 9.88-2.75 17.52-8.22 22.9-5.48 5.38-13.16 8.07-23.04 8.07zm97.38-15.86v14.53h-53.39v-66.5h52.16v14.53h-33.54v11.22h29.55v14.06h-29.55v12.16h34.77zm10.45-51.97h18.81v51.59h31.74v14.91h-50.55v-66.5zm103.28 53.58h-28.12l-5.23 12.92h-19.19l29.36-66.5h18.52l29.46 66.5h-19.58l-5.22-12.92zm-5.51-13.87l-8.55-21.28-8.55 21.28h17.1zm63.27-39.71h31.45c7.29 0 13.75 1.36 19.39 4.08 5.63 2.73 10 6.59 13.11 11.59 3.1 5.01 4.65 10.87 4.65 17.58 0 6.72-1.55 12.57-4.65 17.58-3.11 5-7.48 8.87-13.11 11.59-5.64 2.72-12.1 4.08-19.39 4.08h-31.45v-66.5zm30.69 51.49c5.7 0 10.28-1.61 13.73-4.84 3.45-3.23 5.18-7.7 5.18-13.4s-1.73-10.17-5.18-13.39c-3.45-3.24-8.03-4.85-13.73-4.85h-11.87v36.48h11.87zm101.19.48v14.53h-53.4v-66.5h52.16v14.53h-33.54v11.22h29.55v14.06h-29.55v12.16h34.78zm98.14 14.53l-.19-35.24-17.1 28.69h-8.36l-17.01-27.74v34.29h-17.38v-66.5h15.48l23.38 38.38 22.8-38.38h15.49l.19 66.5h-17.3zm61.29 1.33c-9.89 0-17.57-2.69-23.04-8.07-5.48-5.38-8.22-13.02-8.22-22.9v-36.86h18.81v36.29c0 10.64 4.21 15.96 12.64 15.96 8.36 0 12.54-5.32 12.54-15.96v-36.29h18.52v36.86c0 9.88-2.74 17.52-8.21 22.9-5.48 5.38-13.16 8.07-23.04 8.07zm3.61-87.69h18.05l-17.86 14.44h-12.93l12.74-14.44zm63.75 87.69c-5.39 0-10.61-.66-15.68-1.99s-9.18-3.1-12.35-5.32l6.17-13.87c2.98 1.96 6.43 3.54 10.36 4.75 3.93 1.2 7.79 1.8 11.59 1.8 7.22 0 10.83-1.8 10.83-5.41 0-1.9-1.03-3.31-3.08-4.23-2.06-.92-5.37-1.88-9.93-2.9-5.01-1.07-9.19-2.23-12.54-3.47-3.36-1.23-6.24-3.21-8.65-5.93-2.41-2.73-3.61-6.4-3.61-11.03 0-4.05 1.11-7.71 3.32-10.97 2.22-3.26 5.53-5.84 9.93-7.74 4.41-1.9 9.81-2.85 16.2-2.85 4.37 0 8.68.49 12.92 1.47 4.25.98 7.99 2.42 11.22 4.32l-5.8 13.97c-6.33-3.42-12.48-5.13-18.43-5.13-3.74 0-6.46.55-8.17 1.66-1.71 1.11-2.57 2.55-2.57 4.33 0 1.77 1.02 3.1 3.04 3.99 2.03.88 5.29 1.8 9.79 2.75 5.06 1.08 9.26 2.23 12.59 3.47 3.32 1.23 6.2 3.2 8.64 5.89 2.44 2.69 3.66 6.35 3.66 10.97 0 3.99-1.11 7.6-3.32 10.83-2.22 3.23-5.55 5.81-9.98 7.75-4.43 1.93-9.82 2.89-16.15 2.89zm38.1-67.83h18.81v66.5h-18.81v-66.5zm65.36 67.83c-6.96 0-13.22-1.47-18.76-4.41-5.54-2.95-9.9-7.05-13.06-12.31-3.17-5.25-4.75-11.21-4.75-17.86 0-6.65 1.58-12.6 4.75-17.86 3.16-5.26 7.52-9.36 13.06-12.3 5.54-2.95 11.8-4.42 18.76-4.42 6.08 0 11.56 1.07 16.44 3.23 4.88 2.15 8.93 5.25 12.16 9.31l-11.97 10.83c-4.31-5.19-9.53-7.79-15.68-7.79-3.61 0-6.82.79-9.64 2.37-2.82 1.59-5 3.82-6.56 6.7-1.55 2.88-2.32 6.19-2.32 9.93 0 3.74.77 7.05 2.32 9.93 1.56 2.88 3.74 5.11 6.56 6.7 2.82 1.58 6.03 2.37 9.64 2.37 6.15 0 11.37-2.59 15.68-7.79l11.97 10.83c-3.23 4.06-7.28 7.16-12.16 9.31-4.88 2.16-10.36 3.23-16.44 3.23zm80.38-14.25h-28.12l-5.23 12.92h-19.19l29.36-66.5h18.53l29.45 66.5h-19.57l-5.23-12.92zm-5.51-13.87l-8.55-21.28-8.55 21.28h17.1z"/></g></svg>