<?xml version="1.0" encoding="UTF-8"?>
<!DOCTYPE svg PUBLIC "-//W3C//DTD SVG 1.0//EN" "http://www.w3.org/TR/2001/REC-SVG-20010904/DTD/svg10.dtd">
<!-- Creator: CorelDRAW 2021 (64-Bit) -->
<svg xmlns="http://www.w3.org/2000/svg" xml:space="preserve" width="252px" height="192px" version="1.0" style="shape-rendering:geometricPrecision; text-rendering:geometricPrecision; image-rendering:optimizeQuality; fill-rule:evenodd; clip-rule:evenodd"
viewBox="0 0 30.26 23.06"
 xmlns:xlink="http://www.w3.org/1999/xlink"
 xmlns:xodm="http://www.corel.com/coreldraw/odm/2003">
 <defs>
  <style type="text/css">
   <![CDATA[
    .str0 {stroke:#4B4954;stroke-width:0.24;stroke-linecap:round;stroke-linejoin:round;stroke-miterlimit:22.9256}
    .fil0 {fill:#4B4954}
    .fil1 {fill:#F8E0BC;fill-rule:nonzero}
   ]]>
  </style>
 </defs>
 <g id="Capa_x0020_1">
  <metadata id="CorelCorpID_0Corel-Layer"/>
  <polygon class="fil0 str0" points="0.12,0.12 30.14,0.12 30.14,22.94 0.12,22.94 "/>
  <g id="_2720347009264">
   <path class="fil1" d="M11.33 6.66c0.06,-0.01 0.1,-0.01 0.13,0.01 0.03,0.02 0.06,0.03 0.1,0.03 0.02,0 0.03,0.01 0.05,0 0.02,0 0.04,0 0.07,0 0.04,0 0.08,0.01 0.11,0.02 0.02,0.01 0.05,0.03 0.08,0.07 0.01,0 0.02,0.01 0.03,0.03 0.01,0.01 0.02,0.02 0.02,0.03 0,0.03 -0.01,0.05 -0.02,0.08 -0.02,0.02 -0.03,0.05 -0.03,0.09 0,0.06 0.01,0.12 0.03,0.18 0.01,0.06 0.02,0.12 0.02,0.18 0.02,0.22 0.03,0.44 0.03,0.67 0,0.22 0,0.44 0,0.66 0,0.03 0,0.06 0,0.08 0,0.02 -0.01,0.04 -0.02,0.06l0 0.07c-0.01,0.09 0,0.19 0,0.28 0.01,0.1 0.01,0.19 0.01,0.28 0,0.09 0,0.17 -0.01,0.25 -0.01,0.08 -0.01,0.17 -0.01,0.25 0,0.08 0,0.16 0.01,0.24 0.01,0.07 0.02,0.15 0.02,0.23 -0.02,0.03 -0.03,0.05 -0.03,0.07 -0.01,0.02 -0.01,0.04 -0.02,0.05 -0.01,0.01 -0.03,0.01 -0.04,0.01 -0.01,-0.01 -0.02,0 -0.03,0.01 -0.02,0.02 -0.03,0.04 -0.04,0.07 0,0.03 -0.02,0.05 -0.05,0.07 -0.01,0.05 -0.03,0.09 -0.06,0.12 -0.03,0.02 -0.05,0.06 -0.06,0.1 -0.05,0.01 -0.08,0 -0.09,0 -0.02,-0.01 -0.04,-0.02 -0.05,-0.03 -0.01,-0.06 -0.01,-0.1 0,-0.13 0,-0.02 0.01,-0.05 0.01,-0.08 0,-0.04 -0.01,-0.06 -0.03,-0.08 -0.02,-0.02 -0.03,-0.04 -0.04,-0.07 -0.04,-0.03 -0.06,-0.04 -0.08,-0.05 -0.01,-0.01 -0.02,-0.02 -0.04,-0.04 -0.02,-0.02 -0.03,-0.06 -0.05,-0.09 -0.01,-0.03 -0.03,-0.06 -0.05,-0.09 -0.05,-0.08 -0.1,-0.17 -0.15,-0.25 -0.05,-0.09 -0.11,-0.17 -0.17,-0.25 -0.01,-0.02 -0.02,-0.04 -0.04,-0.05 -0.01,-0.02 -0.02,-0.03 -0.04,-0.05 -0.06,-0.1 -0.11,-0.2 -0.17,-0.3 -0.05,-0.1 -0.11,-0.19 -0.19,-0.28 -0.02,-0.04 -0.05,-0.08 -0.06,-0.12 -0.01,-0.05 -0.04,-0.09 -0.06,-0.12 -0.01,0.02 -0.01,0.04 -0.01,0.06 0,0.02 0,0.04 0,0.06 0,0.12 0,0.24 0.01,0.36 0,0.12 0.01,0.24 0.01,0.37 0,0.02 -0.01,0.04 -0.01,0.06 -0.01,0.02 -0.01,0.05 -0.01,0.07 0,0.04 0,0.07 0.01,0.1 0,0.03 0,0.07 0,0.1 0,0.04 0,0.08 0,0.11 0,0.04 -0.01,0.07 -0.01,0.11 -0.01,0.05 -0.02,0.09 -0.03,0.13 -0.01,0.04 -0.01,0.08 -0.01,0.13 0,0.02 0,0.05 0.01,0.07 0,0.02 0,0.04 0,0.06 -0.02,0.04 -0.05,0.06 -0.09,0.06 -0.04,0 -0.07,0.01 -0.09,0.04 -0.03,0 -0.04,0 -0.06,0 -0.01,0.01 -0.02,0.01 -0.03,0.01 -0.02,0 -0.03,0 -0.04,0 0,0 -0.01,-0.01 -0.02,-0.01 -0.02,0 -0.04,0.01 -0.06,0.03 -0.02,0.02 -0.03,0.03 -0.05,0.03 -0.01,0 -0.03,-0.01 -0.06,-0.02 -0.03,-0.02 -0.06,-0.04 -0.09,-0.05 -0.03,-0.03 -0.05,-0.04 -0.08,-0.06 -0.02,-0.02 -0.04,-0.04 -0.04,-0.05 0,-0.02 0,-0.04 0,-0.07 0,-0.05 0,-0.09 0.01,-0.13 0,-0.04 0.01,-0.08 0.02,-0.13 0.01,-0.12 0.01,-0.24 0.01,-0.36 0,-0.12 0,-0.24 0,-0.36 0,-0.05 0,-0.1 0,-0.15 0.01,-0.05 0.01,-0.1 0.01,-0.15 0,-0.12 -0.01,-0.24 -0.02,-0.36 -0.01,-0.12 -0.01,-0.24 -0.01,-0.36 0,-0.08 0,-0.16 0.01,-0.24 0.01,-0.08 0.01,-0.16 0.01,-0.24 0,-0.06 0,-0.12 0,-0.18 -0.01,-0.06 -0.01,-0.12 -0.01,-0.18 0,-0.04 0,-0.08 0,-0.12 0,-0.05 0.01,-0.09 0.01,-0.13 0,-0.05 -0.01,-0.09 -0.02,-0.13 -0.02,-0.04 -0.02,-0.08 -0.02,-0.12 0,-0.02 0,-0.04 0.01,-0.06 0.01,-0.02 0.02,-0.04 0.02,-0.06 0,-0.03 -0.01,-0.06 -0.02,-0.09 -0.01,-0.03 -0.01,-0.05 -0.01,-0.08 0,-0.03 0,-0.06 0.01,-0.08 0.01,-0.03 0.01,-0.06 0.01,-0.08 0.05,-0.03 0.09,-0.04 0.13,-0.04 0.04,0 0.07,0.01 0.09,0.04 0,0.07 0,0.12 0.01,0.15 0.01,0.03 0.01,0.07 0.02,0.1 0,0.02 0,0.05 -0.01,0.08 0,0.03 0,0.06 0.01,0.08 0,0.03 0.01,0.05 0.02,0.07 0.01,0.02 0.04,0.03 0.07,0.03 0.01,0.01 0.02,0.03 0.03,0.04 0.01,0.02 0.01,0.04 0.02,0.06 0.02,-0.02 0.03,-0.04 0.03,-0.06 0.01,-0.03 0.01,-0.05 0,-0.07 0.02,0.01 0.04,0.01 0.05,0.01 0.02,0 0.03,0 0.05,0.01 0,0.05 0.01,0.09 0.02,0.13 0.01,0.03 0.02,0.08 0.01,0.13 0.08,0.05 0.14,0.13 0.19,0.23 0.05,0.1 0.1,0.18 0.15,0.26 0.02,0.04 0.05,0.08 0.09,0.11 0.03,0.04 0.06,0.08 0.07,0.12 0.03,0.02 0.06,0.05 0.07,0.07 0.02,0.03 0.04,0.06 0.05,0.09 0.07,0.13 0.15,0.25 0.24,0.37 0.08,0.11 0.17,0.23 0.27,0.35 0,-0.03 0,-0.05 0,-0.08 0,-0.02 0,-0.04 0,-0.07l0 -0.48c0,-0.03 0,-0.06 -0.01,-0.08 0,-0.03 0,-0.06 0,-0.08 -0.01,-0.1 -0.01,-0.19 -0.01,-0.28 0,-0.09 0,-0.18 0,-0.27 -0.01,-0.1 -0.01,-0.2 -0.01,-0.3 0,-0.1 -0.01,-0.2 -0.02,-0.3 0,-0.06 0,-0.12 -0.01,-0.18 0,-0.06 0,-0.12 0,-0.19 0,-0.07 0,-0.14 0.02,-0.2 0.01,-0.01 0.01,-0.01 0.02,-0.02 0.01,0 0.02,-0.01 0.04,-0.01 0.02,0 0.03,0.02 0.04,0.06zm2.13 0.35c0,0.03 -0.01,0.06 -0.03,0.08 -0.02,0.01 -0.04,0.03 -0.06,0.06 -0.04,0.03 -0.07,0.06 -0.1,0.1 -0.02,0.03 -0.05,0.06 -0.09,0.1 -0.01,0.01 -0.03,0.03 -0.06,0.05 -0.02,0.03 -0.05,0.05 -0.08,0.07 -0.02,0.03 -0.05,0.05 -0.08,0.06 -0.02,0.02 -0.05,0.03 -0.06,0.03 -0.03,0 -0.07,-0.01 -0.11,-0.03 -0.05,-0.02 -0.09,-0.03 -0.12,-0.04 -0.03,0 -0.05,-0.01 -0.07,-0.01 -0.02,0 -0.04,-0.01 -0.05,-0.03 -0.07,-0.01 -0.11,-0.03 -0.13,-0.06 -0.02,-0.03 -0.04,-0.07 -0.06,-0.1 0,-0.01 0.01,-0.02 0.02,-0.03 0.01,0 0.02,-0.01 0.03,-0.02 0.03,-0.04 0.06,-0.08 0.09,-0.11 0.02,-0.03 0.05,-0.06 0.08,-0.1 0.06,-0.05 0.12,-0.11 0.18,-0.16 0.05,-0.06 0.11,-0.11 0.17,-0.16 0.03,-0.01 0.05,-0.02 0.07,-0.04 0.01,-0.01 0.03,-0.02 0.06,-0.02 0.03,0 0.05,0.01 0.07,0.02 0.02,0.02 0.04,0.04 0.06,0.07 0.01,0.02 0.03,0.04 0.05,0.07 0.01,0.02 0.03,0.04 0.05,0.05 0.03,0.01 0.06,0.04 0.11,0.07 0.04,0.02 0.06,0.05 0.06,0.08zm-0.74 1c0.03,0.02 0.05,0.04 0.06,0.06 0.01,0.02 0.03,0.04 0.06,0.05 0.02,0.01 0.04,0.02 0.07,0.02 0.02,0 0.04,0 0.06,0.01 0.02,0 0.03,0.01 0.03,0.02 0.01,0.01 0.02,0.03 0.02,0.04 0.03,0.01 0.06,0.03 0.1,0.04 0.05,0.02 0.08,0.03 0.09,0.05 0.03,0.03 0.05,0.08 0.06,0.13 0.01,0.05 0.02,0.1 0.03,0.15 0.01,0.06 0.01,0.12 0.01,0.17 0.01,0.06 0.01,0.1 0.02,0.14 0.01,0.09 0.02,0.17 0.03,0.25 0.01,0.08 0.01,0.16 0.01,0.24 0,0.08 0,0.17 -0.01,0.26 0,0.08 -0.01,0.17 -0.01,0.25 0,0.04 0,0.09 0,0.16 0,0.06 -0.02,0.11 -0.05,0.15 0,0.01 0,0.04 0,0.07l0 0.18c0,0.02 0,0.04 0,0.06 0.01,0.02 0.01,0.05 0.01,0.07 0,0.04 -0.01,0.07 -0.03,0.09 -0.01,-0.01 -0.03,-0.01 -0.04,-0.01 -0.01,0 -0.02,0 -0.03,0 -0.04,0 -0.07,0.01 -0.09,0.02 -0.04,0 -0.08,0 -0.11,-0.01 -0.04,0 -0.08,0 -0.11,0 -0.07,0 -0.13,0.01 -0.2,0.02 -0.02,-0.03 -0.02,-0.07 -0.02,-0.11 0,-0.04 -0.01,-0.07 -0.03,-0.11 0,-0.01 0,-0.02 0,-0.03 -0.01,0 -0.01,-0.01 -0.01,-0.03 0.01,-0.04 0.02,-0.07 0.02,-0.08 0,-0.02 0,-0.04 0,-0.06 0,-0.04 0,-0.1 -0.01,-0.15 0,-0.05 0,-0.1 0.01,-0.15 0,-0.02 0,-0.04 0.01,-0.05 0,-0.01 0.01,-0.03 0.01,-0.05 0,-0.02 -0.01,-0.03 -0.02,-0.04 0,0 -0.01,-0.01 -0.01,-0.02 0,-0.01 0,-0.03 0.01,-0.06 0,-0.02 0,-0.04 0.01,-0.05 0,-0.02 0,-0.05 0,-0.08 0,-0.03 0.01,-0.05 0.01,-0.08 0,-0.05 -0.01,-0.11 -0.01,-0.17 0,-0.06 -0.01,-0.11 -0.01,-0.16 0,-0.03 0,-0.05 0,-0.05 -0.01,-0.01 -0.01,-0.02 -0.01,-0.02 -0.01,0 -0.01,-0.01 -0.02,-0.01 -0.01,0 -0.01,-0.01 -0.01,-0.02 0.01,-0.15 0,-0.31 -0.02,-0.47 -0.03,-0.16 -0.04,-0.32 -0.04,-0.48 0,-0.02 0.01,-0.04 0.01,-0.05 0.01,-0.02 0.02,-0.03 0.03,-0.03 0.01,-0.01 0.02,-0.02 0.03,-0.03 0.01,-0.01 0.01,-0.02 0.02,-0.04 0.03,0.01 0.05,0.01 0.07,0zm3.15 -1.48c0.03,0 0.05,0.01 0.06,0.02 0.02,0.01 0.03,0.03 0.03,0.05 0.04,0 0.08,0 0.11,0.02 0.04,0.01 0.06,0.03 0.07,0.04 0.03,0.01 0.05,0.01 0.05,0.02 0.01,0.02 0.02,0.02 0.04,0.03l0.06 -0.01c0.01,0.01 0.04,0.03 0.08,0.04 0.04,0.02 0.07,0.03 0.07,0.05 0,0.02 -0.01,0.04 -0.01,0.06 0.01,0.02 0.01,0.04 0.01,0.07 -0.01,0.05 -0.03,0.1 -0.05,0.14 -0.03,0.04 -0.05,0.08 -0.07,0.12 -0.01,0.02 -0.02,0.04 -0.02,0.06 -0.01,0.02 -0.01,0.04 -0.02,0.06 -0.01,0.02 -0.01,0.03 -0.02,0.04 0,0.02 -0.01,0.03 -0.02,0.04 0,0.02 0,0.04 -0.01,0.06 0,0.02 -0.01,0.04 -0.02,0.06 0,0.02 0,0.03 0,0.04 -0.01,0.01 -0.01,0.02 -0.01,0.03 -0.07,0.16 -0.12,0.31 -0.16,0.46 -0.04,0.14 -0.08,0.28 -0.12,0.43 -0.02,0.04 -0.04,0.09 -0.05,0.16 -0.02,0.06 -0.04,0.14 -0.07,0.23 -0.03,0.09 -0.06,0.18 -0.09,0.28 -0.03,0.1 -0.06,0.19 -0.08,0.27 -0.03,0.09 -0.05,0.16 -0.07,0.22 -0.02,0.06 -0.03,0.09 -0.04,0.1 -0.01,0.06 -0.02,0.12 -0.05,0.18 -0.02,0.06 -0.03,0.13 -0.05,0.2 -0.02,0.02 -0.03,0.04 -0.03,0.07 -0.01,0.03 -0.01,0.05 -0.03,0.08 -0.03,-0.01 -0.05,0 -0.07,0.02 0,0.03 0,0.06 0.01,0.08 0.01,0.03 0.01,0.05 0.01,0.08 -0.01,0.04 -0.03,0.06 -0.05,0.08 -0.02,0.01 -0.04,0.02 -0.04,0.05 -0.03,-0.01 -0.05,0 -0.06,0.01 -0.01,0.01 -0.03,0.02 -0.04,0.02 -0.04,-0.01 -0.07,0 -0.08,0.02 -0.02,0 -0.03,0 -0.04,0.01 0,0.01 -0.01,0.02 -0.02,0.03 -0.03,0 -0.05,0 -0.07,0.01 -0.01,0.02 -0.03,0.02 -0.05,0.03 -0.02,-0.01 -0.03,-0.02 -0.05,-0.03 -0.01,0 -0.02,-0.01 -0.03,-0.02 -0.03,-0.07 -0.05,-0.13 -0.06,-0.18 -0.02,-0.06 -0.04,-0.12 -0.06,-0.19 0,-0.02 -0.01,-0.05 -0.02,-0.08 -0.01,-0.02 -0.02,-0.05 -0.03,-0.08 0,-0.01 -0.01,-0.03 -0.01,-0.04 0,-0.01 0,-0.03 0,-0.04 -0.01,-0.02 -0.02,-0.04 -0.02,-0.06 -0.01,-0.01 -0.02,-0.03 -0.02,-0.05 -0.03,-0.08 -0.05,-0.16 -0.07,-0.24 -0.02,-0.06 -0.03,-0.12 -0.05,-0.18 -0.02,-0.06 -0.03,-0.12 -0.05,-0.18 -0.01,-0.05 -0.02,-0.1 -0.03,-0.16 -0.02,-0.06 -0.04,-0.11 -0.06,-0.15 0,-0.06 -0.02,-0.11 -0.04,-0.16 -0.03,-0.05 -0.04,-0.11 -0.04,-0.16 -0.02,-0.06 -0.03,-0.12 -0.04,-0.17 -0.02,-0.06 -0.03,-0.12 -0.05,-0.17 -0.01,-0.03 -0.01,-0.06 -0.03,-0.09 -0.01,-0.02 -0.02,-0.05 -0.02,-0.07 -0.01,-0.03 -0.02,-0.07 -0.03,-0.1 -0.01,-0.04 -0.01,-0.07 -0.02,-0.11 -0.01,-0.03 -0.02,-0.06 -0.03,-0.09 -0.01,-0.03 -0.02,-0.07 -0.04,-0.1 -0.01,-0.06 -0.03,-0.12 -0.05,-0.18 -0.01,-0.06 -0.03,-0.12 -0.05,-0.18 -0.02,-0.07 -0.03,-0.13 -0.05,-0.2 -0.01,-0.07 -0.04,-0.13 -0.08,-0.19 -0.01,-0.02 -0.02,-0.04 -0.03,-0.06 0,-0.03 -0.01,-0.05 -0.02,-0.07 0.01,-0.03 0.01,-0.06 0.01,-0.1 -0.01,-0.04 0,-0.07 0.01,-0.09 0.04,0 0.08,0 0.13,0 0.05,0 0.09,0 0.11,0.01 0.02,-0.01 0.03,-0.01 0.04,-0.02 0.01,-0.01 0.02,-0.01 0.03,-0.01 0.02,0.01 0.05,0.01 0.07,0.01 0.03,0 0.05,-0.01 0.07,-0.02 0.04,0.02 0.06,0.02 0.07,0.01 0,-0.01 0.01,-0.02 0.02,-0.02 0.03,0.01 0.04,0.03 0.05,0.05 0.01,0.02 0.02,0.04 0.03,0.06 0.04,0.07 0.07,0.14 0.09,0.21 0.02,0.07 0.04,0.15 0.06,0.23 0.03,0.07 0.05,0.14 0.07,0.21 0.03,0.07 0.05,0.14 0.06,0.21 0.02,0.04 0.02,0.07 0.03,0.11 0.01,0.04 0.02,0.07 0.02,0.11 0.01,0.04 0.03,0.07 0.04,0.11 0.01,0.03 0.03,0.07 0.04,0.11 0.01,0.04 0.02,0.07 0.02,0.11 0.01,0.04 0.02,0.08 0.03,0.12 0.01,0.03 0.02,0.05 0.03,0.08 0.01,0.02 0.02,0.05 0.03,0.08 0,0.03 0.01,0.06 0.02,0.09 0,0.03 0.01,0.06 0.02,0.09 0.02,0.07 0.04,0.14 0.06,0.21 0.02,0.07 0.04,0.14 0.06,0.21 0.01,-0.01 0.03,-0.03 0.03,-0.06 0,-0.03 0.01,-0.05 0.02,-0.07 0.01,-0.04 0.02,-0.09 0.03,-0.14 0.02,-0.05 0.04,-0.09 0.05,-0.14 0,-0.01 0.01,-0.03 0.01,-0.05 0.01,-0.01 0.02,-0.03 0.02,-0.04 0.01,-0.03 0.02,-0.05 0.02,-0.07 0.01,-0.02 0.01,-0.05 0.02,-0.07 0.02,-0.05 0.03,-0.1 0.05,-0.15 0.01,-0.05 0.03,-0.1 0.04,-0.15 0.02,-0.05 0.03,-0.1 0.04,-0.15 0.01,-0.05 0.02,-0.1 0.04,-0.14 0.02,-0.04 0.04,-0.08 0.05,-0.11 0.01,-0.04 0.02,-0.08 0.03,-0.11 0.01,-0.04 0.02,-0.08 0.03,-0.12 0.01,-0.04 0.02,-0.08 0.04,-0.11 0.01,-0.02 0.01,-0.04 0.02,-0.06 0.01,-0.03 0.02,-0.05 0.03,-0.07 0.01,-0.06 0.03,-0.11 0.04,-0.17 0.02,-0.06 0.04,-0.12 0.06,-0.17 0.02,-0.05 0.04,-0.1 0.07,-0.15 0.02,-0.05 0.04,-0.09 0.06,-0.14 0.02,-0.04 0.03,-0.06 0.04,-0.07 0.01,-0.01 0.02,-0.03 0.03,-0.04zm1.69 2.73c0.01,0.02 0.03,0.05 0.08,0.11 0.04,0.06 0.09,0.12 0.15,0.19 0.06,0.07 0.11,0.13 0.17,0.2 0.05,0.06 0.08,0.1 0.11,0.13 0.04,0.05 0.07,0.1 0.11,0.15 0.04,0.05 0.07,0.1 0.11,0.15l0.09 0.17c0.03,0.03 0.06,0.06 0.08,0.09 0.02,0.02 0.04,0.06 0.06,0.1 0.01,0.03 0.01,0.05 0.01,0.06 0,0.02 -0.01,0.04 -0.03,0.05 -0.03,0 -0.04,0.01 -0.04,0.02 -0.01,0 -0.01,0.01 -0.03,0.02 -0.01,0.01 -0.04,0.01 -0.07,0.01 -0.03,0 -0.05,0.01 -0.07,0.01 -0.03,0 -0.07,-0.01 -0.12,-0.01 -0.05,0 -0.09,0.01 -0.11,0.02 -0.01,0 -0.02,0.01 -0.04,0.01 -0.01,0.01 -0.02,0.01 -0.03,0.01 -0.03,0 -0.05,0 -0.06,-0.01 -0.01,-0.01 -0.03,-0.02 -0.05,-0.02 -0.03,-0.03 -0.05,-0.06 -0.08,-0.1 -0.01,-0.03 -0.04,-0.07 -0.06,-0.1 -0.03,-0.03 -0.05,-0.05 -0.08,-0.07 -0.02,-0.02 -0.04,-0.04 -0.06,-0.07 -0.06,-0.08 -0.11,-0.15 -0.17,-0.23 -0.06,-0.07 -0.11,-0.15 -0.18,-0.22 -0.02,-0.04 -0.06,-0.07 -0.09,-0.11 -0.03,-0.03 -0.06,-0.06 -0.09,-0.1 -0.03,-0.04 -0.05,-0.08 -0.08,-0.12 -0.02,-0.04 -0.05,-0.08 -0.07,-0.12 -0.03,-0.03 -0.05,-0.08 -0.09,-0.13 -0.04,-0.05 -0.08,-0.1 -0.12,-0.15 -0.04,-0.05 -0.08,-0.1 -0.13,-0.15 -0.04,-0.05 -0.08,-0.08 -0.11,-0.11 0,-0.02 -0.01,-0.04 -0.02,-0.05 -0.02,-0.01 -0.03,-0.02 -0.05,-0.03 -0.01,-0.02 -0.02,-0.04 -0.02,-0.05 -0.01,-0.02 -0.02,-0.04 -0.02,-0.06 0,-0.02 0.01,-0.04 0.02,-0.07 0.01,-0.01 0.01,-0.02 0.01,-0.04 0,-0.01 0.01,-0.02 0.02,-0.04 0.01,-0.04 0.04,-0.07 0.07,-0.11 0.03,-0.04 0.05,-0.08 0.07,-0.12 0.01,-0.01 0.01,-0.03 0.01,-0.04 0,-0.01 0,-0.02 0.01,-0.03 0.01,-0.03 0.02,-0.06 0.05,-0.08 0.02,-0.02 0.04,-0.04 0.05,-0.06 0.02,-0.03 0.04,-0.06 0.06,-0.09 0.01,-0.03 0.03,-0.06 0.05,-0.1 0.05,-0.09 0.11,-0.18 0.17,-0.26 0.05,-0.09 0.11,-0.17 0.18,-0.26 0.04,-0.07 0.09,-0.14 0.13,-0.2 0.05,-0.07 0.09,-0.14 0.14,-0.21 0.02,-0.03 0.05,-0.07 0.08,-0.11 0.03,-0.04 0.06,-0.08 0.09,-0.13 0.04,-0.04 0.07,-0.08 0.11,-0.12 0.04,-0.03 0.07,-0.06 0.11,-0.08 0.05,0 0.09,0.01 0.1,0.03 0.02,0.03 0.05,0.04 0.08,0.04 0.05,0.01 0.08,0.03 0.1,0.05 0.01,0.01 0.03,0.03 0.04,0.05 0.05,0 0.09,0.01 0.13,0.03 0.03,0.02 0.06,0.04 0.08,0.08 -0.01,0.04 -0.02,0.07 -0.04,0.1 -0.03,0.03 -0.05,0.06 -0.06,0.1 -0.03,0.01 -0.05,0.03 -0.07,0.06 -0.01,0.02 -0.03,0.04 -0.05,0.06 -0.04,0.06 -0.07,0.11 -0.11,0.17 -0.04,0.06 -0.08,0.11 -0.12,0.16 -0.02,0.04 -0.05,0.06 -0.07,0.09 -0.02,0.02 -0.04,0.05 -0.06,0.08 -0.01,0.01 -0.01,0.02 -0.02,0.04 -0.01,0.01 -0.01,0.02 -0.02,0.03 -0.04,0.07 -0.09,0.13 -0.14,0.19 -0.05,0.06 -0.1,0.12 -0.14,0.2 -0.01,0.02 -0.03,0.05 -0.03,0.08 -0.01,0.02 -0.02,0.05 -0.04,0.07 -0.01,0.02 -0.03,0.05 -0.06,0.09 -0.03,0.03 -0.05,0.07 -0.08,0.11 -0.02,0.05 -0.05,0.09 -0.07,0.12 -0.02,0.04 -0.03,0.07 -0.03,0.1 0.01,0.01 0.03,0.05 0.07,0.1 0.04,0.05 0.09,0.11 0.14,0.17 0.05,0.06 0.1,0.11 0.15,0.16 0.05,0.06 0.08,0.09 0.09,0.1zm0.36 -0.98c0.02,0.05 0.05,0.1 0.08,0.14 0.01,0.01 0.02,0.03 0.03,0.04 0.02,0.01 0.03,0.02 0.04,0.04 0,0.01 0.01,0.02 0.02,0.05 0,0.02 0.01,0.04 0.02,0.05 0.01,0.03 0.03,0.06 0.06,0.1 0.04,0.03 0.05,0.06 0.05,0.09 0,0.02 0,0.04 -0.01,0.06 -0.01,0.02 -0.01,0.04 -0.02,0.06 0,0.02 0,0.04 0,0.07 0,0.02 -0.01,0.04 -0.02,0.06 -0.02,0.02 -0.04,0.03 -0.06,0.03 -0.02,0 -0.04,0.01 -0.06,0.03 -0.01,0.01 -0.02,0.02 -0.03,0.04 -0.02,0.01 -0.03,0.03 -0.05,0.05 -0.01,0.03 -0.02,0.05 -0.04,0.07 -0.01,0.02 -0.01,0.03 -0.01,0.04 -0.05,0.01 -0.08,0.01 -0.09,0.01 -0.01,-0.01 -0.02,-0.01 -0.04,0 -0.02,-0.02 -0.03,-0.04 -0.05,-0.05 -0.02,-0.01 -0.05,-0.02 -0.08,-0.03 0,-0.03 -0.02,-0.07 -0.05,-0.1 -0.02,-0.04 -0.04,-0.07 -0.06,-0.1l-0.04 -0.05c-0.05,-0.07 -0.1,-0.14 -0.15,-0.21 -0.04,-0.07 -0.07,-0.15 -0.09,-0.24 0.06,-0.05 0.12,-0.08 0.15,-0.11 0.04,-0.02 0.08,-0.05 0.12,-0.07 0.05,-0.02 0.09,-0.04 0.13,-0.06 0.04,-0.02 0.08,-0.05 0.12,-0.07 0.03,0 0.05,0 0.06,0 0.01,0.01 0.01,0.01 0.02,0.01 0,0.01 0.01,0.01 0.01,0.02 0.01,0.01 0.02,0.02 0.04,0.03z"/>
   <path class="fil1" d="M20.88 9.75c0.02,0.03 0.04,0.06 0.04,0.08 0.01,0.02 0.01,0.04 0.02,0.05 0.01,0.02 0.02,0.04 0.02,0.06 0.01,0.02 0.01,0.03 0.01,0.03 0,0.03 -0.01,0.05 -0.01,0.07 -0.01,0.01 -0.03,0.03 -0.05,0.06 -0.14,0.05 -0.28,0.1 -0.42,0.16 -0.14,0.05 -0.28,0.1 -0.43,0.15 -0.04,0.01 -0.08,0.02 -0.11,0.03 -0.03,0.02 -0.07,0.03 -0.1,0.03 -0.01,0.01 -0.02,0.02 -0.04,0.02 -0.02,0.01 -0.04,0.01 -0.06,0.02 -0.02,0.01 -0.04,0.02 -0.06,0.02 -0.02,0.01 -0.03,0.01 -0.04,0.01 -0.03,0.01 -0.06,0.01 -0.09,0.01 -0.04,-0.01 -0.07,0 -0.1,0 -0.02,0 -0.03,0.01 -0.04,0.03 -0.01,0.01 -0.02,0.03 -0.02,0.04 -0.01,0.02 -0.03,0.03 -0.04,0.04 -0.02,0.02 -0.05,0.02 -0.08,0.02 -0.03,0 -0.06,0 -0.1,0 -0.03,-0.01 -0.06,-0.01 -0.1,-0.03 -0.01,-0.01 -0.01,-0.02 -0.01,-0.04 0.01,-0.02 0,-0.03 0,-0.04 -0.04,0 -0.06,0 -0.08,0.01 -0.02,0.01 -0.04,0.01 -0.05,0.02 -0.01,-0.02 -0.02,-0.03 -0.03,-0.05 0,-0.02 -0.01,-0.04 -0.03,-0.06 0,-0.01 0,-0.03 0,-0.05 0,-0.02 0,-0.03 0,-0.05 0,-0.03 0,-0.06 0,-0.09 0,-0.03 0.01,-0.06 0.02,-0.08 0.01,-0.2 0.01,-0.41 0.01,-0.61 0,-0.21 0,-0.41 0,-0.61 0,-0.03 0,-0.05 0,-0.09 0,-0.03 0,-0.07 0,-0.1 0,-0.04 0,-0.07 0,-0.1 -0.01,-0.03 -0.01,-0.05 -0.01,-0.07 0,-0.02 0,-0.05 0,-0.07 0,-0.03 0,-0.05 0,-0.07 0,-0.03 0,-0.05 0,-0.06 0,-0.02 0,-0.04 -0.01,-0.06 0.01,-0.01 0.01,-0.03 0.01,-0.06 0,-0.01 0,-0.03 -0.01,-0.05 0,-0.02 0,-0.04 0,-0.05 0,-0.03 0,-0.06 0,-0.09 0,-0.02 0,-0.05 0,-0.08 0,-0.09 0,-0.19 -0.01,-0.28 -0.01,-0.09 -0.01,-0.18 -0.01,-0.27 0,-0.13 0,-0.25 -0.01,-0.37 0,-0.12 0,-0.24 0,-0.37 0.01,-0.03 0.02,-0.06 0.02,-0.09 0.05,-0.02 0.09,-0.03 0.12,-0.02 0.02,0 0.05,0.01 0.08,0.01 0.02,0 0.04,0 0.05,-0.01 0.01,0 0.03,-0.01 0.04,-0.01 0.02,0 0.04,0 0.05,0.01 0.01,0 0.03,0.01 0.04,0.01 0.06,-0.01 0.09,-0.02 0.09,-0.01 0.01,0.01 0.02,0.02 0.03,0.02 0.01,0 0.02,-0.01 0.03,-0.02 0.01,0 0.02,-0.01 0.04,-0.01 0.02,0 0.03,0.01 0.05,0.04 0.01,0.03 0.02,0.05 0.03,0.07 0,0.04 0.01,0.07 0.02,0.11 0.01,0.14 0.01,0.29 0.01,0.43 0,0.15 0.01,0.29 0.02,0.43 0,0.07 0,0.13 0.01,0.2 0,0.07 0.01,0.14 0.01,0.2 0,0.11 0,0.22 0,0.33 0,0.11 0,0.22 0,0.33 0,0.02 0,0.03 0.01,0.05 0,0.01 0,0.03 0,0.05 0,0.04 0,0.08 -0.01,0.12 0,0.04 0,0.08 0,0.12l0 0.42c0,0.03 0,0.07 -0.01,0.11 0,0.04 0,0.07 0.01,0.11l0.02 0.06c0.04,-0.01 0.08,-0.03 0.12,-0.04 0.04,-0.02 0.08,-0.03 0.13,-0.04 0.03,0 0.06,-0.01 0.08,-0.02 0.03,-0.01 0.05,-0.01 0.08,-0.02 0.05,-0.03 0.09,-0.05 0.12,-0.06 0.03,-0.01 0.06,-0.02 0.09,-0.03 0.06,-0.02 0.12,-0.05 0.17,-0.07 0.06,-0.02 0.12,-0.04 0.18,-0.07 0.03,0.01 0.05,0.01 0.07,-0.01 0.04,0.01 0.07,0.01 0.1,0.01 0.04,0.04 0.06,0.07 0.07,0.1 0.01,0.02 0.02,0.04 0.04,0.05 -0.01,0.02 0,0.03 0,0.04 0.01,0 0.02,0.01 0.02,0.02 0.02,0.01 0.02,0.02 0.01,0.03 -0.01,0.02 -0.02,0.03 -0.02,0.04zm-17.21 2.83c0,0.03 -0.01,0.06 -0.03,0.07 -0.02,0.02 -0.04,0.04 -0.06,0.06 -0.03,0.04 -0.07,0.07 -0.09,0.1 -0.03,0.04 -0.06,0.07 -0.1,0.1 -0.01,0.02 -0.03,0.04 -0.06,0.06 -0.02,0.02 -0.05,0.05 -0.07,0.07 -0.03,0.02 -0.06,0.04 -0.08,0.06 -0.03,0.02 -0.05,0.03 -0.07,0.03 -0.03,0 -0.07,-0.01 -0.11,-0.03 -0.05,-0.02 -0.08,-0.03 -0.12,-0.04 -0.02,-0.01 -0.04,-0.01 -0.06,-0.01 -0.02,0 -0.04,-0.01 -0.06,-0.03 -0.06,-0.01 -0.11,-0.04 -0.12,-0.07 -0.02,-0.03 -0.04,-0.06 -0.06,-0.09 0,-0.01 0,-0.02 0.01,-0.03 0.01,0 0.02,-0.01 0.03,-0.02 0.04,-0.04 0.07,-0.08 0.09,-0.11 0.03,-0.03 0.05,-0.07 0.09,-0.1 0.06,-0.05 0.12,-0.11 0.17,-0.17 0.06,-0.05 0.12,-0.11 0.18,-0.16 0.03,0 0.05,-0.01 0.06,-0.03 0.02,-0.02 0.04,-0.03 0.07,-0.03 0.02,0 0.05,0.01 0.07,0.03 0.02,0.02 0.04,0.04 0.05,0.06 0.02,0.03 0.03,0.05 0.05,0.07 0.02,0.03 0.04,0.04 0.06,0.05 0.02,0.02 0.06,0.05 0.1,0.07 0.04,0.03 0.06,0.06 0.06,0.09zm-0.73 1c0.02,0.01 0.04,0.03 0.05,0.06 0.02,0.02 0.03,0.04 0.06,0.05 0.02,0.01 0.04,0.01 0.07,0.01 0.02,0 0.05,0.01 0.06,0.01 0.02,0.01 0.03,0.02 0.04,0.03 0,0.01 0.01,0.02 0.02,0.03 0.02,0.02 0.05,0.04 0.1,0.05 0.04,0.02 0.07,0.03 0.09,0.05 0.02,0.03 0.04,0.07 0.05,0.12 0.02,0.05 0.03,0.11 0.03,0.16 0.01,0.06 0.01,0.11 0.02,0.17 0,0.06 0.01,0.1 0.01,0.14 0.01,0.08 0.02,0.17 0.03,0.25 0.01,0.08 0.02,0.16 0.02,0.24 0,0.08 -0.01,0.17 -0.01,0.25 -0.01,0.09 -0.01,0.17 -0.01,0.26 0,0.04 -0.01,0.09 -0.01,0.16 0,0.06 -0.01,0.11 -0.04,0.15 -0.01,0.01 -0.01,0.04 -0.01,0.07l0 0.18c0,0.02 0,0.04 0.01,0.06 0,0.02 0,0.04 0,0.07 0,0.04 -0.01,0.07 -0.03,0.09 -0.01,-0.01 -0.02,-0.01 -0.03,-0.01 -0.02,0 -0.03,0 -0.04,0 -0.04,0 -0.07,0.01 -0.09,0.02 -0.03,0 -0.07,-0.01 -0.11,-0.01 -0.03,0 -0.07,0 -0.11,0 -0.06,0 -0.13,0 -0.2,0.02 -0.01,-0.03 -0.02,-0.07 -0.02,-0.11 0,-0.04 0,-0.08 -0.02,-0.11 -0.01,-0.01 -0.01,-0.02 -0.01,-0.03 0,-0.01 0,-0.02 0,-0.03 0.01,-0.04 0.01,-0.07 0.01,-0.09 0,-0.01 0,-0.03 0,-0.05 0,-0.05 0,-0.1 0,-0.15 -0.01,-0.05 -0.01,-0.1 0,-0.15 0,-0.02 0.01,-0.04 0.01,-0.05 0.01,-0.02 0.01,-0.03 0.01,-0.05 0,-0.02 0,-0.03 -0.01,-0.04 -0.01,0 -0.01,-0.01 -0.01,-0.03 0,-0.01 0,-0.02 0,-0.05 0,-0.02 0.01,-0.04 0.01,-0.05 0,-0.03 0,-0.05 0.01,-0.08 0,-0.03 0,-0.05 0,-0.08 0,-0.06 0,-0.11 -0.01,-0.17 0,-0.06 0,-0.11 0,-0.17 0,-0.02 0,-0.04 -0.01,-0.05 0,0 -0.01,-0.01 -0.01,-0.01 0,0 -0.01,-0.01 -0.01,-0.01 -0.01,0 -0.02,-0.01 -0.02,-0.02 0.01,-0.16 0.01,-0.31 -0.02,-0.47 -0.02,-0.16 -0.03,-0.32 -0.03,-0.48 0,-0.02 0,-0.04 0.01,-0.06 0,-0.01 0.01,-0.02 0.02,-0.03 0.01,0 0.02,-0.01 0.03,-0.02 0.01,-0.01 0.02,-0.02 0.02,-0.04 0.03,0.01 0.06,0.01 0.08,0zm3.04 -1.35c0.06,-0.01 0.11,-0.01 0.14,0.01 0.03,0.01 0.06,0.03 0.09,0.03 0.02,0 0.04,0 0.06,0 0.02,0 0.04,0 0.06,0 0.04,0 0.08,0 0.11,0.01 0.03,0.02 0.05,0.04 0.08,0.07 0.01,0.01 0.02,0.02 0.03,0.03 0.01,0.02 0.02,0.03 0.02,0.04 0,0.03 -0.01,0.05 -0.02,0.07 -0.02,0.03 -0.02,0.06 -0.02,0.1 0,0.06 0,0.12 0.02,0.18 0.01,0.05 0.02,0.12 0.03,0.18 0.01,0.22 0.02,0.44 0.02,0.67 0.01,0.22 0.01,0.44 0.01,0.66 0,0.03 0,0.05 -0.01,0.08 0,0.02 -0.01,0.04 -0.02,0.06l0 0.07c0,0.09 0,0.19 0.01,0.28 0,0.1 0.01,0.19 0.01,0.28 0,0.09 -0.01,0.17 -0.02,0.25 -0.01,0.08 -0.01,0.17 -0.01,0.25 0,0.08 0.01,0.16 0.02,0.23 0.01,0.08 0.01,0.16 0.01,0.24 -0.02,0.03 -0.03,0.05 -0.03,0.07 0,0.02 -0.01,0.03 -0.02,0.05 -0.01,0.01 -0.02,0.01 -0.04,0 -0.01,0 -0.02,0 -0.03,0.01 -0.01,0.03 -0.03,0.05 -0.03,0.08 -0.01,0.03 -0.03,0.05 -0.06,0.07 0,0.05 -0.02,0.09 -0.05,0.12 -0.03,0.02 -0.06,0.06 -0.07,0.1 -0.04,0 -0.07,0 -0.09,0 -0.02,-0.01 -0.03,-0.02 -0.05,-0.03 0,-0.06 0,-0.1 0,-0.13 0.01,-0.03 0.01,-0.05 0.01,-0.08 0,-0.04 -0.01,-0.06 -0.03,-0.08 -0.02,-0.02 -0.03,-0.04 -0.03,-0.07 -0.04,-0.03 -0.07,-0.04 -0.09,-0.05 -0.01,-0.01 -0.02,-0.02 -0.03,-0.04 -0.02,-0.03 -0.04,-0.06 -0.06,-0.09 -0.01,-0.03 -0.03,-0.06 -0.04,-0.09 -0.05,-0.08 -0.11,-0.17 -0.16,-0.25 -0.05,-0.09 -0.11,-0.17 -0.17,-0.26 -0.01,-0.01 -0.02,-0.03 -0.03,-0.04 -0.02,-0.02 -0.03,-0.04 -0.04,-0.05 -0.06,-0.1 -0.12,-0.2 -0.17,-0.3 -0.06,-0.1 -0.12,-0.19 -0.19,-0.28 -0.03,-0.04 -0.05,-0.08 -0.07,-0.12 -0.01,-0.05 -0.03,-0.09 -0.06,-0.12 -0.01,0.02 -0.01,0.04 -0.01,0.06 0,0.02 0,0.04 0,0.06 0,0.12 0.01,0.24 0.01,0.36 0.01,0.12 0.01,0.24 0.01,0.36 0,0.03 0,0.05 -0.01,0.07 0,0.02 -0.01,0.04 -0.01,0.07 0,0.03 0,0.07 0.01,0.1 0,0.03 0,0.06 0,0.1 0,0.04 0,0.07 0,0.11 0,0.04 0,0.07 -0.01,0.11 0,0.04 -0.01,0.09 -0.02,0.13 -0.01,0.04 -0.02,0.08 -0.02,0.13 0,0.02 0,0.04 0.01,0.07 0,0.02 0.01,0.04 0.01,0.05 -0.03,0.04 -0.06,0.06 -0.1,0.06 -0.04,0 -0.07,0.02 -0.09,0.05 -0.02,-0.01 -0.04,0 -0.05,0 -0.02,0.01 -0.03,0.01 -0.04,0.01 -0.01,0 -0.02,0 -0.03,0 -0.01,-0.01 -0.02,-0.01 -0.03,-0.01 -0.02,0 -0.04,0.01 -0.06,0.03 -0.01,0.02 -0.03,0.03 -0.05,0.03 -0.01,0 -0.03,-0.01 -0.06,-0.03 -0.02,-0.01 -0.05,-0.03 -0.08,-0.05 -0.03,-0.02 -0.06,-0.04 -0.09,-0.06 -0.02,-0.02 -0.03,-0.03 -0.03,-0.04 -0.01,-0.02 -0.01,-0.04 -0.01,-0.08 0,-0.04 0,-0.08 0.01,-0.12 0,-0.04 0.01,-0.09 0.02,-0.13 0.01,-0.12 0.01,-0.24 0.01,-0.36 0,-0.12 0,-0.24 0,-0.37 0,-0.04 0,-0.1 0.01,-0.15 0,-0.05 0,-0.1 0,-0.15 0,-0.11 -0.01,-0.23 -0.01,-0.35 -0.01,-0.12 -0.02,-0.24 -0.02,-0.36 0,-0.08 0.01,-0.16 0.01,-0.25 0.01,-0.08 0.01,-0.16 0.01,-0.24 0,-0.06 0,-0.11 0,-0.17 0,-0.06 -0.01,-0.12 -0.01,-0.18 0,-0.04 0,-0.08 0,-0.13 0.01,-0.04 0.01,-0.08 0.01,-0.12 0,-0.05 -0.01,-0.09 -0.02,-0.13 -0.01,-0.04 -0.02,-0.08 -0.02,-0.12 0,-0.02 0.01,-0.04 0.01,-0.06 0.01,-0.02 0.02,-0.04 0.02,-0.06 0,-0.03 -0.01,-0.06 -0.02,-0.09 0,-0.03 -0.01,-0.06 -0.01,-0.08 0,-0.03 0,-0.06 0.01,-0.09 0.01,-0.02 0.01,-0.05 0.01,-0.08 0.05,-0.02 0.1,-0.03 0.14,-0.03 0.04,0 0.07,0.01 0.08,0.04 0,0.06 0.01,0.11 0.01,0.15 0.01,0.03 0.02,0.07 0.02,0.1 0,0.02 0,0.05 0,0.08 0,0.03 0,0.05 0,0.08 0,0.03 0.01,0.05 0.02,0.07 0.02,0.02 0.04,0.02 0.07,0.02 0.01,0.02 0.02,0.04 0.03,0.05 0.01,0.02 0.02,0.03 0.02,0.06 0.02,-0.02 0.03,-0.04 0.04,-0.06 0,-0.03 0,-0.05 0,-0.07 0.02,0 0.03,0.01 0.05,0.01 0.01,-0.01 0.02,0 0.04,0 0.01,0.05 0.01,0.1 0.03,0.14 0.01,0.03 0.01,0.08 0.01,0.13 0.07,0.05 0.13,0.13 0.18,0.23 0.05,0.09 0.1,0.18 0.15,0.26 0.02,0.04 0.05,0.08 0.09,0.11 0.03,0.04 0.06,0.08 0.08,0.12 0.03,0.02 0.05,0.04 0.07,0.07 0.01,0.03 0.03,0.06 0.04,0.09 0.08,0.12 0.15,0.25 0.24,0.36 0.09,0.12 0.18,0.24 0.27,0.35 0,-0.02 0.01,-0.05 0.01,-0.07 0,-0.02 0,-0.05 0,-0.07l-0.01 -0.48c0,-0.03 0,-0.06 0,-0.09 0,-0.02 -0.01,-0.05 -0.01,-0.08 -0.01,-0.09 -0.01,-0.18 -0.01,-0.27 0.01,-0.09 0.01,-0.18 0,-0.28 0,-0.09 -0.01,-0.19 -0.01,-0.29 0,-0.1 -0.01,-0.2 -0.01,-0.3 -0.01,-0.06 -0.01,-0.12 -0.01,-0.18 -0.01,-0.07 -0.01,-0.13 -0.01,-0.19 0,-0.07 0.01,-0.14 0.02,-0.2 0.01,-0.01 0.02,-0.01 0.03,-0.02 0.01,-0.01 0.02,-0.01 0.03,-0.01 0.02,0 0.04,0.02 0.04,0.06zm3.48 0.16c-0.01,0.02 -0.01,0.03 -0.01,0.04 0,0.02 0,0.04 0,0.05 -0.01,0.05 -0.01,0.07 0,0.07 0.01,0 0.01,0 0.01,0.01l-0.04 0.05c0,0.02 0,0.04 -0.01,0.06 -0.01,0.02 -0.01,0.04 -0.01,0.07 -0.01,0.01 -0.02,0.03 -0.03,0.05 -0.01,0.02 -0.02,0.04 -0.04,0.05l-0.07 0c-0.04,0 -0.08,0.01 -0.12,0.01 -0.05,0.01 -0.09,0.01 -0.14,0.01 0,0 -0.01,0 -0.02,0 -0.01,-0.01 -0.02,-0.01 -0.03,-0.01 -0.01,0 -0.02,0 -0.03,0.01 -0.01,0 -0.02,0 -0.04,0 -0.05,0 -0.11,0 -0.16,-0.01 -0.05,0 -0.1,-0.01 -0.16,-0.01 -0.02,0 -0.03,0 -0.04,0 -0.02,0 -0.04,0.01 -0.05,0.01 -0.01,0.06 -0.01,0.12 -0.01,0.18 0,0.07 0,0.13 0,0.2 0,0.01 -0.01,0.03 -0.01,0.05 0,0.02 0,0.04 0,0.06 -0.01,0.05 -0.01,0.09 -0.01,0.13 0,0.05 0,0.09 0,0.14 0,0.1 0,0.2 0,0.3 0,0.1 0,0.2 0.01,0.3 0,0.06 0,0.11 0.01,0.16 0,0.05 0,0.1 0,0.16 0,0.12 0,0.24 0,0.36 -0.01,0.12 -0.01,0.24 -0.01,0.36 0,0.04 0,0.08 0,0.11 -0.01,0.04 -0.01,0.07 -0.01,0.11 0,0.08 0,0.17 0.01,0.25 0,0.08 0,0.16 0,0.25 0,0.04 0,0.08 0,0.11 0,0.04 0,0.08 0,0.12 -0.02,0.03 -0.04,0.06 -0.04,0.08 -0.01,0.02 -0.03,0.03 -0.07,0.03 -0.02,-0.01 -0.03,-0.02 -0.03,-0.02 0,-0.01 0,-0.02 -0.01,-0.03 -0.03,0 -0.06,0 -0.07,0.01 -0.02,0.01 -0.04,0.02 -0.06,0.02 -0.01,0 -0.02,0 -0.03,0 -0.02,0 -0.03,0 -0.04,0 -0.01,0 -0.01,0 -0.02,0.01 -0.01,0 -0.02,0.01 -0.05,0.01 -0.02,0 -0.03,0 -0.04,-0.02 0,-0.01 -0.01,-0.01 -0.03,-0.01 -0.02,0.01 -0.04,0.02 -0.06,0.02 -0.02,0.01 -0.05,0.01 -0.07,0.01 -0.02,-0.01 -0.03,-0.03 -0.03,-0.04 0,-0.01 0,-0.03 0,-0.04 -0.01,-0.01 -0.01,-0.02 -0.02,-0.03 -0.01,-0.01 -0.02,-0.02 -0.03,-0.03 0.01,-0.05 0.01,-0.09 0.02,-0.13 0,-0.04 0,-0.09 0,-0.13 0,-0.1 0,-0.19 -0.01,-0.28 0,-0.09 -0.01,-0.18 -0.01,-0.27 0,-0.03 0.01,-0.06 0.01,-0.09 0.01,-0.03 0.01,-0.07 0.01,-0.1 0,-0.03 -0.01,-0.05 0,-0.06 0,0 0,-0.01 0,-0.01 0,-0.03 0,-0.05 0,-0.07 0,-0.02 0,-0.04 0,-0.06 0,-0.05 0,-0.09 0,-0.13 0,-0.04 0,-0.09 0,-0.13 0,-0.02 0,-0.04 0,-0.06 0,-0.02 0,-0.04 0,-0.05 -0.01,-0.04 -0.01,-0.07 0,-0.11 0,-0.03 0,-0.07 0,-0.1 0,-0.18 0,-0.35 -0.01,-0.51 0,-0.17 -0.01,-0.34 -0.01,-0.52 0,-0.08 0.01,-0.17 0.02,-0.25 0,-0.08 0.01,-0.17 0.01,-0.26 0,-0.01 0,-0.02 -0.01,-0.04 -0.01,-0.02 -0.02,-0.03 -0.02,-0.04 -0.02,0 -0.04,0 -0.05,0 -0.02,0 -0.04,0 -0.06,0 -0.03,0 -0.07,0 -0.11,0.01 -0.07,0.01 -0.13,0.01 -0.19,0.02 -0.07,0 -0.13,0.01 -0.19,0.01 -0.05,0 -0.07,0 -0.08,0 -0.01,0 -0.02,0 -0.03,0 -0.03,0 -0.05,-0.01 -0.07,-0.02l0 -0.07c-0.02,-0.04 -0.03,-0.07 -0.02,-0.07 0,0 0,-0.01 0,-0.02 0,-0.01 -0.01,-0.02 -0.03,-0.03 -0.02,-0.01 -0.03,-0.03 -0.03,-0.06 0,-0.03 -0.01,-0.05 -0.02,-0.07 -0.01,-0.01 -0.02,-0.03 -0.02,-0.04 0,-0.03 0.01,-0.05 0.02,-0.09 0.03,-0.01 0.06,-0.03 0.09,-0.03 0.03,-0.01 0.07,-0.02 0.11,-0.03 0.02,-0.01 0.04,-0.01 0.06,-0.02 0.02,-0.01 0.04,-0.02 0.06,-0.02 0.02,0 0.05,0 0.07,0 0.03,0 0.05,-0.01 0.08,-0.01 0.05,-0.01 0.11,-0.02 0.17,-0.03 0.06,0 0.11,-0.01 0.17,-0.01 0.05,0 0.1,0.01 0.15,0.02 0.05,0.01 0.09,0.02 0.13,0.02 0.06,0 0.11,0 0.17,0.01 0.05,0.01 0.1,0.01 0.16,0.01 0.01,0 0.02,0 0.04,0.01 0.01,0.01 0.03,0.01 0.05,0.01l0.52 0c0.03,0.01 0.05,0.01 0.06,0 0.02,0 0.03,0 0.04,0 0.03,0 0.06,0 0.08,0 0.02,0.01 0.05,0.01 0.08,0.01 0.03,0 0.05,0 0.06,-0.01 0.03,0.01 0.06,0.02 0.08,0.03 0.03,0.01 0.05,0.02 0.09,0.02 0.01,0.01 0.02,0.02 0.03,0.04 0.01,0.01 0.02,0.03 0.04,0.03z"/>
   <path class="fil1" d="M10.53 14.83c0,0.01 0.03,0.05 0.07,0.11 0.05,0.06 0.1,0.12 0.16,0.19 0.05,0.07 0.11,0.13 0.16,0.19 0.05,0.07 0.09,0.11 0.11,0.14 0.04,0.05 0.08,0.1 0.12,0.15 0.03,0.05 0.07,0.1 0.1,0.15l0.1 0.16c0.03,0.04 0.05,0.07 0.08,0.1 0.02,0.02 0.04,0.05 0.05,0.1 0.01,0.03 0.01,0.05 0.01,0.06 0,0.02 -0.01,0.04 -0.02,0.05 -0.03,0 -0.05,0 -0.05,0.01 0,0.01 -0.01,0.02 -0.02,0.03 -0.02,0 -0.04,0.01 -0.07,0.01 -0.03,0 -0.06,0 -0.07,0 -0.04,0 -0.08,0 -0.12,0 -0.05,0 -0.09,0 -0.12,0.01 -0.01,0.01 -0.02,0.01 -0.03,0.02 -0.02,0.01 -0.03,0.01 -0.03,0.01 -0.03,0 -0.05,0 -0.07,-0.01 -0.01,-0.01 -0.03,-0.02 -0.05,-0.02 -0.03,-0.03 -0.05,-0.07 -0.07,-0.1 -0.02,-0.03 -0.04,-0.07 -0.07,-0.11 -0.02,-0.02 -0.05,-0.04 -0.07,-0.06 -0.03,-0.02 -0.05,-0.04 -0.07,-0.07 -0.05,-0.08 -0.11,-0.16 -0.16,-0.23 -0.06,-0.08 -0.12,-0.15 -0.18,-0.22 -0.03,-0.04 -0.06,-0.08 -0.09,-0.11 -0.03,-0.03 -0.06,-0.07 -0.09,-0.11 -0.03,-0.03 -0.06,-0.07 -0.08,-0.11 -0.03,-0.04 -0.05,-0.08 -0.08,-0.12 -0.02,-0.03 -0.05,-0.08 -0.09,-0.13 -0.03,-0.05 -0.07,-0.1 -0.11,-0.16 -0.05,-0.05 -0.09,-0.1 -0.13,-0.14 -0.05,-0.05 -0.08,-0.09 -0.11,-0.11 0,-0.02 -0.01,-0.04 -0.03,-0.05 -0.01,-0.01 -0.03,-0.03 -0.05,-0.04 0,-0.01 -0.01,-0.03 -0.02,-0.05 -0.01,-0.01 -0.01,-0.03 -0.01,-0.05 0,-0.02 0,-0.05 0.01,-0.07 0.01,-0.01 0.01,-0.03 0.02,-0.04 0,-0.01 0,-0.02 0.01,-0.04 0.02,-0.04 0.04,-0.08 0.07,-0.11 0.03,-0.04 0.06,-0.08 0.07,-0.13 0.01,-0.01 0.02,-0.02 0.02,-0.03 0,-0.01 0,-0.02 0.01,-0.04 0,-0.02 0.02,-0.05 0.04,-0.07 0.03,-0.02 0.04,-0.04 0.06,-0.06 0.02,-0.03 0.03,-0.06 0.05,-0.09 0.02,-0.03 0.03,-0.07 0.05,-0.1 0.05,-0.09 0.11,-0.18 0.17,-0.26 0.06,-0.09 0.12,-0.17 0.18,-0.26 0.05,-0.07 0.09,-0.14 0.14,-0.21 0.04,-0.06 0.09,-0.13 0.13,-0.2 0.03,-0.03 0.06,-0.07 0.08,-0.11 0.03,-0.04 0.06,-0.09 0.1,-0.13 0.03,-0.04 0.07,-0.08 0.1,-0.12 0.04,-0.03 0.08,-0.06 0.11,-0.08 0.05,-0.01 0.09,0 0.11,0.03 0.02,0.03 0.04,0.04 0.08,0.04 0.05,0.01 0.08,0.03 0.09,0.04 0.01,0.02 0.03,0.04 0.05,0.06 0.05,0 0.09,0.01 0.12,0.03 0.03,0.01 0.06,0.04 0.09,0.08 -0.01,0.04 -0.03,0.07 -0.05,0.1 -0.02,0.03 -0.04,0.06 -0.06,0.09 -0.03,0.02 -0.05,0.04 -0.06,0.06 -0.01,0.03 -0.03,0.05 -0.06,0.06 -0.03,0.06 -0.07,0.12 -0.11,0.18 -0.04,0.05 -0.08,0.11 -0.12,0.16 -0.02,0.03 -0.04,0.06 -0.06,0.09 -0.03,0.02 -0.05,0.05 -0.07,0.08 0,0.01 -0.01,0.02 -0.02,0.03 0,0.02 -0.01,0.03 -0.01,0.04 -0.05,0.07 -0.09,0.13 -0.14,0.19 -0.05,0.06 -0.1,0.12 -0.14,0.2 -0.02,0.02 -0.03,0.05 -0.04,0.07 -0.01,0.03 -0.02,0.06 -0.03,0.08 -0.02,0.02 -0.04,0.05 -0.07,0.09 -0.02,0.03 -0.05,0.07 -0.07,0.11 -0.03,0.04 -0.05,0.08 -0.07,0.12 -0.02,0.04 -0.03,0.07 -0.03,0.1 0,0.01 0.03,0.05 0.07,0.1 0.04,0.05 0.08,0.11 0.14,0.17 0.05,0.06 0.1,0.11 0.14,0.16 0.05,0.06 0.08,0.09 0.1,0.1zm0.35 -0.98c0.03,0.05 0.05,0.1 0.08,0.14 0.01,0.01 0.02,0.03 0.04,0.04 0.01,0.01 0.02,0.02 0.03,0.04 0.01,0.01 0.01,0.02 0.02,0.04 0.01,0.03 0.02,0.04 0.02,0.06 0.01,0.02 0.04,0.06 0.07,0.09 0.03,0.04 0.05,0.07 0.05,0.1 0,0.02 -0.01,0.04 -0.01,0.06 -0.01,0.02 -0.02,0.04 -0.02,0.06 0,0.02 -0.01,0.04 -0.01,0.06 0,0.03 0,0.05 -0.02,0.07 -0.02,0.01 -0.03,0.03 -0.06,0.03 -0.02,0 -0.04,0.01 -0.06,0.03 0,0 -0.01,0.02 -0.03,0.03 -0.01,0.02 -0.03,0.04 -0.04,0.06 -0.02,0.02 -0.03,0.04 -0.04,0.06 -0.01,0.02 -0.02,0.04 -0.02,0.05 -0.04,0 -0.07,0 -0.08,0 -0.02,0 -0.03,0 -0.04,0.01 -0.02,-0.02 -0.04,-0.04 -0.06,-0.05 -0.02,-0.01 -0.04,-0.02 -0.07,-0.03 -0.01,-0.03 -0.03,-0.07 -0.05,-0.1 -0.03,-0.04 -0.05,-0.07 -0.07,-0.1l-0.03 -0.05c-0.06,-0.07 -0.11,-0.14 -0.15,-0.21 -0.05,-0.08 -0.08,-0.15 -0.1,-0.24 0.07,-0.05 0.12,-0.09 0.16,-0.11 0.04,-0.03 0.08,-0.05 0.12,-0.07 0.04,-0.02 0.08,-0.04 0.13,-0.06 0.04,-0.02 0.08,-0.05 0.11,-0.08 0.03,0 0.05,0.01 0.06,0.01 0.01,0 0.02,0.01 0.02,0.01 0.01,0 0.01,0.01 0.01,0.02 0.01,0.01 0.02,0.02 0.04,0.03zm3.33 1.87c0,0.05 0.01,0.09 0.04,0.12 0.02,0.03 0.05,0.06 0.06,0.1 0,0.05 0,0.09 0.02,0.12 -0.01,0.02 -0.02,0.04 -0.03,0.07 -0.01,0.03 -0.03,0.05 -0.05,0.07 -0.06,0.02 -0.09,0.04 -0.1,0.06 -0.01,0.02 -0.03,0.03 -0.07,0.03 -0.01,0.02 -0.03,0.04 -0.06,0.06 -0.02,0.02 -0.04,0.03 -0.06,0.05 -0.01,-0.01 -0.03,-0.01 -0.03,-0.03 -0.01,-0.01 -0.02,-0.02 -0.03,-0.04 -0.04,-0.01 -0.07,-0.03 -0.1,-0.05 -0.03,-0.03 -0.06,-0.06 -0.08,-0.1 -0.02,-0.03 -0.04,-0.07 -0.06,-0.1 -0.02,-0.04 -0.04,-0.08 -0.05,-0.11 -0.05,-0.09 -0.1,-0.19 -0.15,-0.28 -0.05,-0.09 -0.11,-0.19 -0.16,-0.28 -0.03,-0.05 -0.06,-0.1 -0.08,-0.15 -0.03,-0.04 -0.06,-0.09 -0.09,-0.14 -0.01,-0.01 -0.01,-0.02 -0.02,-0.03 -0.01,-0.01 -0.01,-0.02 -0.02,-0.03 -0.03,-0.03 -0.05,-0.07 -0.06,-0.12 -0.01,-0.04 -0.04,-0.08 -0.08,-0.11 -0.06,0 -0.13,0.01 -0.18,0.03 -0.06,0.03 -0.11,0.06 -0.15,0.11 0,0.02 0.01,0.05 0.01,0.07 0,0.02 0,0.04 0,0.06 0,0.08 -0.01,0.16 -0.01,0.24 -0.01,0.07 -0.01,0.15 -0.01,0.23 0,0.04 0,0.08 0,0.11 0,0.04 0.01,0.08 0.02,0.12 -0.01,0.03 -0.02,0.08 -0.02,0.12 0,0.03 0,0.05 0.01,0.07 0,0.03 0.01,0.05 0.01,0.07 0,0.04 -0.01,0.06 -0.04,0.08 -0.02,0.01 -0.03,0.03 -0.02,0.06 -0.05,0.02 -0.09,0.04 -0.13,0.06 -0.04,0.01 -0.08,0.03 -0.12,0.03 -0.02,0.01 -0.04,0.01 -0.05,0.01 -0.02,-0.01 -0.04,0 -0.05,0.01 -0.02,0 -0.03,0.02 -0.04,0.04 -0.02,0.02 -0.03,0.02 -0.05,0.02 -0.02,0 -0.03,0 -0.04,-0.02 0,-0.02 -0.01,-0.03 -0.02,-0.04 -0.02,-0.01 -0.03,-0.01 -0.04,-0.01 -0.01,0 -0.02,-0.01 -0.03,-0.02 0,-0.03 -0.01,-0.05 -0.02,-0.07 -0.02,-0.02 -0.03,-0.05 -0.03,-0.1 0,-0.04 0,-0.08 0.01,-0.11 0,-0.04 0.01,-0.07 0.01,-0.11 0,-0.04 -0.01,-0.07 -0.02,-0.09 -0.01,-0.03 -0.02,-0.06 -0.02,-0.09 -0.01,-0.02 -0.01,-0.03 0,-0.04 0,-0.02 0,-0.03 0,-0.05 0,-0.06 0,-0.13 0,-0.19 -0.01,-0.07 -0.01,-0.13 -0.01,-0.2 0,-0.02 0,-0.05 0,-0.07 0,-0.02 0,-0.04 0,-0.06 0.01,-0.03 0.02,-0.04 0.02,-0.06 0.01,-0.01 0.01,-0.03 0.01,-0.05 0,-0.07 -0.01,-0.14 -0.02,-0.2 -0.02,-0.07 -0.02,-0.14 -0.02,-0.2 0,-0.04 0,-0.07 0,-0.11 0,-0.04 0,-0.07 0,-0.11 0,-0.1 0,-0.21 0,-0.31 -0.01,-0.1 -0.01,-0.2 -0.01,-0.3 0,-0.07 0,-0.14 0.01,-0.21 0,-0.07 0,-0.14 0,-0.21 0,-0.09 0,-0.18 -0.01,-0.27 -0.01,-0.09 -0.01,-0.18 -0.01,-0.27 0,-0.03 0,-0.05 0,-0.06 -0.01,-0.01 -0.01,-0.02 -0.02,-0.02 -0.01,0 -0.02,-0.01 -0.03,-0.01 0,0 -0.01,-0.01 -0.02,-0.02 0,-0.02 0.01,-0.03 0.03,-0.04 0.02,-0.01 0.02,-0.04 0.02,-0.09 0,-0.03 0,-0.06 0,-0.09 -0.01,-0.03 -0.01,-0.05 -0.01,-0.08 0,-0.05 0.01,-0.09 0.03,-0.13 0.01,-0.05 0.03,-0.09 0.04,-0.13 0.05,0 0.08,0 0.09,0 0.02,0.01 0.03,0.01 0.05,0 0.01,0.04 0.04,0.06 0.07,0.06 0.04,0 0.07,0.01 0.1,0.01 0.03,0.01 0.06,0.02 0.09,0.03 0.03,0.01 0.06,0.02 0.09,0.02 0.01,0.02 0.02,0.03 0.05,0.04 0.02,0.01 0.05,0.02 0.07,0.03 0.03,-0.01 0.05,-0.02 0.07,-0.04 0.01,-0.02 0.04,-0.03 0.07,-0.03 0.02,0 0.04,0.01 0.07,0.04 0.03,0.03 0.05,0.06 0.06,0.08 0.02,0.01 0.05,0.03 0.09,0.06 0.03,0.04 0.08,0.08 0.12,0.12 0.05,0.03 0.09,0.07 0.13,0.1 0.04,0.04 0.07,0.06 0.08,0.06 0.15,0.15 0.28,0.28 0.41,0.4 0.13,0.12 0.27,0.23 0.42,0.32 0,0.02 0,0.02 0.01,0.03 0,0.01 0.01,0.02 0.02,0.03 0,0.03 -0.01,0.05 -0.02,0.06 -0.01,0.02 -0.01,0.04 -0.01,0.06 0,0.01 0,0.02 0,0.03 0.01,0.01 0.01,0.02 0.01,0.03 0.01,0.02 0.01,0.03 0,0.04 0,0.01 0,0.03 0,0.04 0,0.04 0.01,0.07 0.04,0.1 0.02,0.03 0.03,0.06 0.03,0.1 0,0.03 -0.02,0.05 -0.04,0.05 -0.02,0.01 -0.04,0.02 -0.05,0.03 -0.01,0.01 -0.02,0.02 -0.02,0.03 -0.01,0.01 -0.01,0.02 -0.02,0.03 -0.08,0.03 -0.14,0.06 -0.17,0.1 -0.04,0.03 -0.08,0.05 -0.12,0.08 -0.01,0.01 -0.03,0.02 -0.05,0.04 -0.03,0.01 -0.05,0.03 -0.08,0.05 -0.02,0.01 -0.04,0.03 -0.06,0.05 -0.02,0.02 -0.03,0.03 -0.03,0.04 0,0.03 0.01,0.06 0.04,0.11 0.03,0.04 0.06,0.08 0.07,0.1 0.04,0.06 0.08,0.13 0.11,0.19 0.03,0.06 0.07,0.13 0.11,0.19 0.07,0.11 0.13,0.22 0.2,0.33 0.06,0.12 0.12,0.23 0.18,0.35zm-0.87 -2c-0.09,-0.1 -0.18,-0.2 -0.27,-0.28 -0.09,-0.09 -0.18,-0.18 -0.27,-0.27l-0.06 -0.01c-0.02,-0.04 -0.05,-0.07 -0.07,-0.09 -0.03,-0.03 -0.06,-0.06 -0.09,-0.09 0.01,0.04 0.01,0.08 0.01,0.12 0,0.03 0,0.07 0,0.11 0,0.11 0,0.23 -0.01,0.33 0,0.11 -0.01,0.22 -0.01,0.34 0,0.11 0.01,0.21 0.02,0.31 0.07,0 0.14,-0.02 0.2,-0.06 0.03,-0.02 0.05,-0.04 0.07,-0.06 0.03,-0.02 0.05,-0.04 0.07,-0.05 0.03,-0.02 0.07,-0.04 0.1,-0.07 0.04,-0.02 0.08,-0.05 0.12,-0.07 0.03,-0.03 0.07,-0.06 0.1,-0.08 0.04,-0.03 0.06,-0.06 0.09,-0.08zm5.03 2.5c-0.02,0.02 -0.04,0.03 -0.06,0.03 -0.02,0 -0.05,0.01 -0.07,0.01 -0.05,0.02 -0.11,0.03 -0.17,0.03 -0.04,-0.02 -0.06,-0.02 -0.06,-0.02 -0.01,0.01 -0.01,0.02 -0.02,0.02 -0.06,0.03 -0.11,0.04 -0.15,0.04 -0.04,0.01 -0.08,0.02 -0.11,0.03 -0.03,-0.02 -0.04,-0.05 -0.04,-0.09 0,-0.04 -0.01,-0.08 -0.02,-0.1 -0.01,-0.03 -0.03,-0.06 -0.03,-0.1 -0.01,-0.04 -0.02,-0.08 -0.02,-0.11 0,-0.04 -0.01,-0.08 -0.01,-0.12 -0.01,-0.04 -0.02,-0.07 -0.03,-0.1 -0.01,-0.02 -0.01,-0.03 -0.01,-0.05 0.01,-0.01 0,-0.03 0,-0.05 0,-0.06 0,-0.11 -0.01,-0.14 -0.01,-0.04 -0.01,-0.07 -0.02,-0.11 0,-0.03 -0.01,-0.05 -0.01,-0.08 0,-0.02 -0.01,-0.04 -0.03,-0.06 0.01,-0.05 0.01,-0.09 0.01,-0.11 -0.01,-0.03 -0.02,-0.05 -0.02,-0.07 0,-0.03 0,-0.06 0,-0.1 0,-0.03 -0.01,-0.06 -0.02,-0.09 -0.02,-0.17 -0.04,-0.34 -0.07,-0.52 -0.02,-0.17 -0.04,-0.34 -0.06,-0.51 -0.03,0.02 -0.04,0.04 -0.05,0.08 -0.01,0.03 -0.02,0.07 -0.02,0.1 -0.03,0.06 -0.05,0.13 -0.06,0.2 -0.02,0.06 -0.04,0.13 -0.06,0.19 0,0.03 -0.01,0.07 -0.02,0.1 0,0.04 -0.01,0.07 -0.02,0.1 -0.04,0.11 -0.07,0.2 -0.09,0.27 -0.03,0.08 -0.06,0.15 -0.08,0.23 -0.01,0.05 -0.02,0.09 -0.02,0.13 -0.01,0.04 -0.02,0.08 -0.03,0.11 0,0.03 0,0.06 -0.01,0.1 -0.01,0.04 -0.02,0.06 -0.02,0.08 -0.01,0.02 -0.02,0.03 -0.02,0.04 -0.01,0.01 -0.01,0.02 0,0.04 -0.04,0.05 -0.07,0.11 -0.08,0.18 -0.01,0.06 -0.03,0.12 -0.07,0.18 0,0.05 -0.01,0.08 -0.04,0.12 -0.02,0 -0.04,0 -0.05,0.01 -0.02,0 -0.04,0.01 -0.06,0.02 -0.01,-0.01 -0.03,-0.01 -0.06,-0.02 -0.02,0 -0.04,0 -0.06,0 -0.02,0 -0.04,-0.01 -0.05,-0.02 -0.02,-0.01 -0.03,-0.01 -0.05,-0.02 -0.02,-0.02 -0.04,-0.04 -0.06,-0.05 -0.02,-0.02 -0.04,-0.04 -0.06,-0.05 -0.03,-0.06 -0.05,-0.09 -0.06,-0.11 -0.01,-0.04 -0.03,-0.08 -0.05,-0.11 -0.01,-0.03 -0.03,-0.07 -0.03,-0.12 -0.02,-0.04 -0.03,-0.07 -0.04,-0.11 -0.02,-0.03 -0.04,-0.07 -0.06,-0.11 0,-0.02 -0.01,-0.05 -0.02,-0.07 -0.01,-0.02 -0.02,-0.05 -0.03,-0.07 0,-0.03 -0.01,-0.07 -0.03,-0.11 -0.02,-0.04 -0.03,-0.08 -0.03,-0.11 0,-0.01 -0.01,-0.02 -0.02,-0.06 -0.02,-0.03 -0.03,-0.07 -0.04,-0.11 -0.01,-0.04 -0.03,-0.07 -0.04,-0.11 -0.01,-0.03 -0.02,-0.05 -0.02,-0.05 -0.01,-0.02 -0.02,-0.03 -0.02,-0.05 -0.01,-0.02 -0.01,-0.04 -0.02,-0.06 -0.01,-0.04 -0.03,-0.09 -0.05,-0.14 -0.02,-0.05 -0.05,-0.09 -0.07,-0.14 -0.02,-0.03 -0.03,-0.07 -0.04,-0.1 0,-0.04 -0.01,-0.07 -0.02,-0.1 -0.01,-0.02 -0.02,-0.04 -0.02,-0.05 -0.01,-0.01 -0.01,-0.03 -0.02,-0.05 -0.01,-0.02 -0.01,-0.04 -0.02,-0.07 -0.01,-0.02 -0.02,-0.04 -0.02,-0.07 -0.02,0.01 -0.03,0.02 -0.03,0.05 0,0.02 0,0.04 0,0.06 -0.01,0.04 -0.01,0.08 -0.01,0.11 0,0.04 0,0.08 -0.01,0.12 0,0.04 -0.01,0.08 -0.02,0.12 0,0.04 -0.01,0.08 -0.01,0.12 0,0.1 -0.01,0.2 -0.02,0.29 -0.01,0.09 -0.02,0.18 -0.03,0.26 -0.01,0.09 -0.02,0.18 -0.02,0.28 0,0.06 -0.01,0.13 -0.02,0.2 -0.01,0.06 -0.02,0.13 -0.01,0.2 -0.01,0.02 -0.01,0.03 -0.01,0.04 0,0 0,0.01 0,0.03 0,0.02 0,0.04 0,0.06 -0.01,0.02 -0.01,0.04 -0.01,0.06 0,0.03 0.01,0.05 0.01,0.06 -0.01,0.03 -0.01,0.07 -0.01,0.11 0,0.03 0,0.07 0,0.11 -0.01,0.01 -0.01,0.02 -0.02,0.04 0,0.01 0,0.03 -0.01,0.04 0,0.06 -0.02,0.09 -0.06,0.09 -0.01,0 -0.02,0 -0.03,-0.01 -0.02,0 -0.03,-0.01 -0.03,-0.02 -0.04,0 -0.06,0 -0.07,-0.03 0,-0.02 -0.02,-0.03 -0.04,-0.02 -0.04,0.01 -0.06,0.02 -0.07,0.01 0,0 -0.01,-0.01 -0.03,0 -0.03,-0.03 -0.05,-0.04 -0.06,-0.04 -0.01,0 -0.02,0.01 -0.02,0.01 -0.04,-0.02 -0.05,-0.02 -0.06,-0.01 0,0 -0.01,0.01 -0.02,0.01 -0.02,-0.02 -0.04,-0.03 -0.07,-0.03 -0.03,0 -0.06,0 -0.08,-0.01 0,-0.01 -0.01,-0.02 -0.01,-0.04 0,-0.01 0,-0.02 0,-0.04 0,-0.02 0,-0.05 0,-0.06 0,-0.02 0.01,-0.04 0.01,-0.07 0,-0.01 -0.01,-0.03 -0.01,-0.05 0,-0.02 0,-0.05 0,-0.07 0,-0.03 0,-0.05 0.01,-0.07 0,-0.03 0,-0.05 0,-0.08 0,-0.01 0,-0.02 0,-0.03 -0.01,-0.01 -0.01,-0.02 -0.01,-0.04 0.02,-0.04 0.03,-0.08 0.03,-0.11 0,-0.02 0,-0.05 0,-0.07 0.01,-0.06 0.02,-0.12 0.02,-0.18 0.01,-0.06 0.01,-0.12 0.02,-0.18 0,-0.1 0,-0.19 0.01,-0.25 0,-0.07 0.01,-0.14 0.02,-0.21 0.01,-0.03 0.02,-0.06 0.02,-0.09 0.01,-0.03 0.01,-0.06 0.02,-0.09 0.01,-0.05 0.01,-0.11 0.01,-0.17 0.01,-0.06 0.01,-0.11 0.02,-0.17 0,-0.09 0.01,-0.18 0.02,-0.27 0.01,-0.09 0.02,-0.17 0.03,-0.26 0.01,-0.07 0.02,-0.13 0.03,-0.2 0,-0.07 0.01,-0.13 0.01,-0.19 0,-0.03 0,-0.07 0.01,-0.12 0.01,-0.05 0.02,-0.1 0.02,-0.13 0.01,-0.09 0.01,-0.17 0.02,-0.26 0,-0.08 0.01,-0.16 0.01,-0.24l0 -0.06c0,-0.01 0,-0.02 0.01,-0.02 0.01,-0.01 0.01,-0.02 0.01,-0.04 0,-0.03 0.01,-0.06 0.02,-0.07 0.02,-0.01 0.03,-0.03 0.04,-0.06 0.02,0 0.04,0 0.07,0 0.02,0.01 0.04,0.02 0.05,0.04 0.02,-0.01 0.05,-0.01 0.07,-0.01 0.03,0 0.05,-0.01 0.07,-0.03 0.02,0 0.03,0 0.04,0.02 0.02,0.01 0.03,0.01 0.05,0.02 0.01,-0.01 0.03,-0.01 0.04,-0.02 0.02,0 0.03,-0.01 0.04,-0.02 0.01,0.01 0.02,0.02 0.03,0.03 0,0.01 0.01,0.01 0.02,0.02 0.06,-0.02 0.09,-0.02 0.11,-0.01 0.01,0.02 0.01,0.03 0.01,0.05 0,0.01 0.01,0.02 0.01,0.04 0.04,0.03 0.06,0.07 0.07,0.12 0.01,0.04 0.03,0.08 0.06,0.12 0.01,0.02 0.02,0.04 0.02,0.06 0.01,0.03 0.02,0.05 0.03,0.08l0.01 0.06c0.02,0.04 0.04,0.08 0.06,0.13 0.02,0.07 0.03,0.14 0.05,0.21 0.01,0.07 0.03,0.14 0.07,0.2 0,0.02 0.01,0.05 0.02,0.08 0,0.03 0.01,0.06 0.02,0.08 0.02,0.06 0.05,0.12 0.08,0.18 0.02,0.06 0.05,0.12 0.07,0.19 0.02,0.07 0.04,0.14 0.06,0.21 0.01,0.07 0.03,0.14 0.06,0.21 0.02,0.06 0.04,0.11 0.05,0.14 0.01,0.03 0.02,0.05 0.04,0.08 0,0.01 0,0.03 0.01,0.06 0,0.02 0.01,0.05 0.02,0.08 0.01,0.02 0.02,0.05 0.03,0.07 0.01,0.02 0.03,0.04 0.04,0.04 0.01,-0.01 0.01,-0.02 0.02,-0.03 0,-0.02 0,-0.03 0.01,-0.04 0.01,-0.04 0.01,-0.09 0.02,-0.14 0.01,-0.06 0.02,-0.11 0.04,-0.14 0,-0.02 0.01,-0.05 0.02,-0.1 0.01,-0.05 0.02,-0.1 0.03,-0.16 0.02,-0.05 0.03,-0.11 0.04,-0.15 0.01,-0.05 0.03,-0.08 0.04,-0.09 0,-0.05 0.01,-0.07 0.02,-0.08 0,-0.01 0.01,-0.02 0.01,-0.03 0.01,-0.03 0.01,-0.06 0.03,-0.08 0.01,-0.03 0.01,-0.05 0.02,-0.08 0,-0.06 0.01,-0.11 0.02,-0.15 0.02,-0.04 0.03,-0.09 0.05,-0.15 0.01,-0.05 0.03,-0.1 0.04,-0.15 0.01,-0.05 0.03,-0.1 0.04,-0.15 0.05,-0.14 0.08,-0.26 0.12,-0.37 0.03,-0.1 0.08,-0.21 0.13,-0.31 0.01,-0.03 0.02,-0.05 0.02,-0.06 0.01,0 0.02,-0.01 0.02,-0.02 0.03,-0.01 0.06,-0.01 0.09,-0.01 0.03,0 0.06,0 0.1,0 0.03,-0.01 0.06,-0.03 0.08,-0.05 0.01,0.02 0.03,0.03 0.06,0.03 0.04,0 0.06,-0.01 0.08,-0.03 0.01,0.01 0.02,0.01 0.03,0 0.01,0 0.02,0 0.04,0.01 0.01,-0.01 0.02,-0.02 0.03,-0.02 0.01,-0.01 0.02,-0.02 0.03,-0.02 0.03,0.04 0.05,0.07 0.07,0.08 0.01,0.03 0.03,0.05 0.03,0.07 0.01,0.03 0.02,0.07 0.02,0.11 0,0.04 0.01,0.07 0.03,0.1 0,0.05 0,0.12 0.01,0.21 0.01,0.1 0.02,0.2 0.03,0.3 0.01,0.11 0.03,0.21 0.04,0.3 0.02,0.09 0.03,0.14 0.04,0.16 0,0.05 0,0.09 0.01,0.12 0,0.03 0.01,0.07 0.01,0.1 0,0.01 0,0.03 0,0.07 0,0.03 0.01,0.07 0.01,0.1 0.01,0.04 0.01,0.08 0.02,0.11 0,0.04 0.01,0.06 0.01,0.08 0,0.06 0.01,0.11 0.03,0.15 0.02,0.08 0.03,0.17 0.05,0.26 0.01,0.09 0.02,0.18 0.03,0.28 0.01,0.04 0.01,0.09 0.02,0.13 0,0.05 0,0.09 0.01,0.14 0,0.01 0.01,0.03 0.01,0.05 0.01,0.02 0.01,0.04 0.02,0.05 0,0.04 0.01,0.07 0.01,0.11 0.01,0.03 0.01,0.06 0.02,0.09 0,0.02 0.01,0.04 0.01,0.06 0.01,0.02 0.01,0.04 0,0.06 0.01,0.03 0.01,0.05 0.01,0.08 0,0.03 0.01,0.06 0.02,0.08 0,0.07 0.01,0.14 0.02,0.2 0,0.04 0.01,0.08 0.03,0.13 0.01,0.04 0.01,0.08 0.02,0.13 0,0.05 0.01,0.09 0.02,0.14z"/>
   <path class="fil1" d="M19.65 14.83c0,0.01 0.03,0.05 0.07,0.11 0.05,0.06 0.1,0.12 0.16,0.19 0.05,0.07 0.11,0.13 0.16,0.19 0.05,0.07 0.09,0.11 0.11,0.14 0.04,0.05 0.08,0.1 0.12,0.15 0.03,0.05 0.07,0.1 0.1,0.15l0.1 0.16c0.03,0.04 0.05,0.07 0.08,0.1 0.02,0.02 0.04,0.05 0.05,0.1 0.01,0.03 0.01,0.05 0.01,0.06 0,0.02 -0.01,0.04 -0.02,0.05 -0.03,0 -0.05,0 -0.05,0.01 0,0.01 -0.01,0.02 -0.02,0.03 -0.02,0 -0.04,0.01 -0.07,0.01 -0.03,0 -0.06,0 -0.07,0 -0.03,0 -0.08,0 -0.12,0 -0.05,0 -0.09,0 -0.12,0.01 -0.01,0.01 -0.02,0.01 -0.03,0.02 -0.02,0.01 -0.03,0.01 -0.03,0.01 -0.03,0 -0.05,0 -0.07,-0.01 -0.01,-0.01 -0.03,-0.02 -0.05,-0.02 -0.03,-0.03 -0.05,-0.07 -0.07,-0.1 -0.02,-0.03 -0.04,-0.07 -0.07,-0.11 -0.02,-0.02 -0.05,-0.04 -0.07,-0.06 -0.03,-0.02 -0.05,-0.04 -0.07,-0.07 -0.05,-0.08 -0.11,-0.16 -0.16,-0.23 -0.06,-0.08 -0.12,-0.15 -0.18,-0.22 -0.03,-0.04 -0.06,-0.08 -0.09,-0.11 -0.03,-0.03 -0.06,-0.07 -0.09,-0.11 -0.03,-0.03 -0.06,-0.07 -0.08,-0.11 -0.03,-0.04 -0.05,-0.08 -0.08,-0.12 -0.02,-0.03 -0.05,-0.08 -0.09,-0.13 -0.03,-0.05 -0.07,-0.1 -0.11,-0.16 -0.05,-0.05 -0.09,-0.1 -0.13,-0.14 -0.05,-0.05 -0.08,-0.09 -0.11,-0.11 0,-0.02 -0.01,-0.04 -0.03,-0.05 -0.01,-0.01 -0.03,-0.03 -0.05,-0.04 0,-0.01 -0.01,-0.03 -0.02,-0.05 -0.01,-0.01 -0.01,-0.03 -0.01,-0.05 0,-0.02 0,-0.05 0.01,-0.07 0.01,-0.01 0.01,-0.03 0.02,-0.04 0,-0.01 0,-0.02 0.01,-0.04 0.02,-0.04 0.04,-0.08 0.07,-0.11 0.03,-0.04 0.06,-0.08 0.08,-0.13 0,-0.01 0.01,-0.02 0.01,-0.03 0,-0.01 0,-0.02 0.01,-0.04 0,-0.02 0.02,-0.05 0.04,-0.07 0.03,-0.02 0.04,-0.04 0.06,-0.06 0.02,-0.03 0.03,-0.06 0.05,-0.09 0.02,-0.03 0.03,-0.07 0.05,-0.1 0.05,-0.09 0.11,-0.18 0.17,-0.26 0.06,-0.09 0.12,-0.17 0.18,-0.26 0.05,-0.07 0.09,-0.14 0.14,-0.21 0.04,-0.06 0.09,-0.13 0.13,-0.2 0.03,-0.03 0.06,-0.07 0.09,-0.11 0.02,-0.04 0.05,-0.09 0.09,-0.13 0.03,-0.04 0.07,-0.08 0.1,-0.12 0.04,-0.03 0.08,-0.06 0.11,-0.08 0.05,-0.01 0.09,0 0.11,0.03 0.02,0.03 0.04,0.04 0.08,0.04 0.05,0.01 0.08,0.03 0.09,0.04 0.02,0.02 0.03,0.04 0.05,0.06 0.05,0 0.09,0.01 0.12,0.03 0.03,0.01 0.06,0.04 0.09,0.08 -0.01,0.04 -0.03,0.07 -0.05,0.1 -0.02,0.03 -0.04,0.06 -0.06,0.09 -0.03,0.02 -0.05,0.04 -0.06,0.06 -0.01,0.03 -0.03,0.05 -0.06,0.06 -0.03,0.06 -0.07,0.12 -0.11,0.18 -0.04,0.05 -0.08,0.11 -0.12,0.16 -0.02,0.03 -0.04,0.06 -0.06,0.09 -0.03,0.02 -0.05,0.05 -0.07,0.08 0,0.01 -0.01,0.02 -0.02,0.03 0,0.02 -0.01,0.03 -0.01,0.04 -0.05,0.07 -0.09,0.13 -0.14,0.19 -0.05,0.06 -0.1,0.12 -0.14,0.2 -0.02,0.02 -0.03,0.05 -0.04,0.07 -0.01,0.03 -0.02,0.06 -0.03,0.08 -0.02,0.02 -0.04,0.05 -0.07,0.09 -0.02,0.03 -0.05,0.07 -0.07,0.11 -0.03,0.04 -0.05,0.08 -0.07,0.12 -0.02,0.04 -0.03,0.07 -0.03,0.1 0,0.01 0.03,0.05 0.07,0.1 0.04,0.05 0.08,0.11 0.14,0.17 0.05,0.06 0.1,0.11 0.14,0.16 0.05,0.06 0.08,0.09 0.1,0.1zm0.35 -0.98c0.03,0.05 0.05,0.1 0.08,0.14 0.01,0.01 0.02,0.03 0.04,0.04 0.01,0.01 0.02,0.02 0.03,0.04 0.01,0.01 0.02,0.02 0.02,0.04 0.01,0.03 0.02,0.04 0.02,0.06 0.01,0.02 0.04,0.06 0.07,0.09 0.03,0.04 0.05,0.07 0.05,0.1 0,0.02 -0.01,0.04 -0.01,0.06 -0.01,0.02 -0.02,0.04 -0.02,0.06 0,0.02 -0.01,0.04 -0.01,0.06 0,0.03 0,0.05 -0.02,0.07 -0.02,0.01 -0.03,0.03 -0.06,0.03 -0.02,0 -0.04,0.01 -0.06,0.03 0,0 -0.01,0.02 -0.03,0.03 -0.01,0.02 -0.03,0.04 -0.04,0.06 -0.01,0.02 -0.03,0.04 -0.04,0.06 -0.01,0.02 -0.02,0.04 -0.02,0.05 -0.04,0 -0.07,0 -0.08,0 -0.02,0 -0.03,0 -0.04,0.01 -0.02,-0.02 -0.04,-0.04 -0.06,-0.05 -0.02,-0.01 -0.04,-0.02 -0.07,-0.03 -0.01,-0.03 -0.03,-0.07 -0.05,-0.1 -0.03,-0.04 -0.05,-0.07 -0.06,-0.1l-0.04 -0.05c-0.06,-0.07 -0.11,-0.14 -0.15,-0.21 -0.05,-0.08 -0.08,-0.15 -0.1,-0.24 0.07,-0.05 0.12,-0.09 0.16,-0.11 0.04,-0.03 0.08,-0.05 0.12,-0.07 0.04,-0.02 0.08,-0.04 0.13,-0.06 0.04,-0.02 0.08,-0.05 0.11,-0.08 0.03,0 0.05,0.01 0.06,0.01 0.01,0 0.02,0.01 0.02,0.01 0.01,0 0.01,0.01 0.02,0.02 0,0.01 0.01,0.02 0.03,0.03zm0.96 2.45c-0.01,-0.01 -0.02,-0.03 -0.02,-0.06 0,-0.02 0,-0.03 0,-0.05 0.01,-0.01 0.01,-0.02 0.01,-0.04 0.02,-0.08 0.03,-0.17 0.03,-0.25 0,-0.08 0,-0.17 0.01,-0.25 0,-0.05 0.01,-0.1 0.01,-0.15 0,-0.05 0,-0.1 0,-0.15 0,-0.3 -0.01,-0.6 -0.03,-0.89 -0.01,-0.3 -0.02,-0.6 -0.02,-0.9 0,-0.2 0,-0.41 0.01,-0.62 0,-0.21 0.01,-0.42 0.01,-0.63 0.04,-0.02 0.08,-0.03 0.12,-0.03 0.05,0.01 0.09,-0.01 0.11,-0.04 0.02,-0.01 0.04,-0.01 0.06,-0.01 0.02,0.01 0.03,0.01 0.05,0.01 0.04,0 0.08,-0.02 0.11,-0.04 0.04,-0.03 0.08,-0.05 0.12,-0.07 0.02,0.01 0.04,0.01 0.05,0.01 0.01,0 0.02,0 0.03,0 0.01,0 0.03,0.01 0.07,0.04 0.03,0.02 0.07,0.05 0.12,0.08 0.04,0.04 0.08,0.07 0.12,0.09 0.04,0.03 0.06,0.05 0.07,0.06 0.09,0.07 0.17,0.14 0.24,0.22 0.07,0.08 0.14,0.16 0.21,0.25 0.06,0.08 0.13,0.16 0.21,0.25 0.07,0.08 0.14,0.16 0.22,0.23 0.02,0.03 0.05,0.05 0.07,0.07 0.03,0.03 0.06,0.05 0.08,0.08 0.01,0.01 0.02,0.03 0.03,0.05 0.01,0.01 0.02,0.03 0.03,0.05 0.02,0.02 0.05,0.04 0.08,0.06 0.03,0.02 0.05,0.04 0.08,0.07 0.02,0.01 0.04,0.04 0.08,0.08 0.03,0.04 0.05,0.08 0.05,0.1 0,0.01 0,0.03 -0.01,0.04 -0.01,0.01 -0.01,0.02 -0.02,0.03 0,0.01 -0.01,0.03 -0.01,0.05 0,0.02 0,0.04 0,0.05 -0.04,0.02 -0.06,0.04 -0.06,0.05 0,0.01 -0.01,0.01 -0.02,0.02 -0.01,0.02 -0.02,0.03 -0.04,0.04 -0.01,0 -0.02,0.02 -0.03,0.04 -0.01,0.01 -0.01,0.02 -0.01,0.03 0,0.01 0,0.02 -0.01,0.04 -0.02,0.03 -0.05,0.07 -0.08,0.11 -0.04,0.03 -0.08,0.07 -0.11,0.12 -0.04,0.06 -0.08,0.13 -0.11,0.19 -0.04,0.07 -0.09,0.13 -0.14,0.19 -0.02,0.03 -0.04,0.05 -0.07,0.08 -0.02,0.03 -0.04,0.06 -0.06,0.09 -0.02,0.02 -0.04,0.04 -0.05,0.06 -0.02,0.03 -0.03,0.05 -0.05,0.08 -0.04,0.05 -0.08,0.1 -0.11,0.15 -0.04,0.05 -0.08,0.1 -0.12,0.15 -0.04,0.06 -0.09,0.12 -0.14,0.18 -0.05,0.05 -0.09,0.12 -0.13,0.18 -0.04,0.06 -0.08,0.12 -0.12,0.17 -0.05,0.06 -0.09,0.11 -0.14,0.16 -0.02,0.01 -0.04,0.03 -0.06,0.05 -0.02,0.02 -0.04,0.03 -0.06,0.03 -0.02,0 -0.03,-0.01 -0.04,-0.02 -0.01,-0.01 -0.02,-0.01 -0.04,-0.01 0,0 -0.01,0 -0.03,0 -0.02,0.01 -0.04,0.01 -0.06,0.01l-0.1 0.01c-0.06,0.03 -0.1,0.05 -0.12,0.04 -0.03,0 -0.05,0 -0.08,0.01 -0.01,0 -0.03,0.01 -0.03,0.01 -0.01,0.01 -0.02,0.01 -0.03,0.01 -0.03,0 -0.05,-0.01 -0.06,-0.03 -0.02,-0.02 -0.04,-0.03 -0.07,-0.03zm1.62 -2.32c0,-0.02 -0.02,-0.05 -0.06,-0.08 -0.03,-0.03 -0.06,-0.05 -0.07,-0.07 -0.03,-0.02 -0.06,-0.04 -0.09,-0.06 -0.04,-0.02 -0.06,-0.04 -0.09,-0.07 -0.01,-0.02 -0.03,-0.04 -0.05,-0.06 -0.01,-0.03 -0.03,-0.05 -0.05,-0.07 -0.06,-0.07 -0.13,-0.14 -0.19,-0.22 -0.07,-0.07 -0.13,-0.15 -0.18,-0.23 -0.03,-0.02 -0.06,-0.05 -0.09,-0.08 -0.03,-0.03 -0.06,-0.05 -0.1,-0.07 -0.01,0.02 -0.01,0.05 -0.01,0.07 0,0.02 0,0.05 0,0.07 0,0.08 0,0.16 -0.01,0.24 -0.01,0.08 -0.01,0.16 -0.01,0.24 0,0.19 0.01,0.38 0.01,0.57 0.01,0.19 0.02,0.37 0.02,0.56 0,0.08 0,0.15 0,0.22 0,0.07 0.01,0.14 0.02,0.21 -0.01,0.03 -0.01,0.05 -0.01,0.06 0,0.02 0,0.05 0.01,0.07 0.03,-0.01 0.05,-0.04 0.07,-0.06 0.02,-0.03 0.04,-0.06 0.06,-0.08 0.06,-0.08 0.12,-0.16 0.18,-0.24 0.06,-0.08 0.12,-0.16 0.18,-0.25 0.04,-0.05 0.08,-0.1 0.12,-0.15 0.04,-0.06 0.08,-0.11 0.12,-0.17 0.01,-0.01 0.03,-0.04 0.05,-0.07 0.02,-0.04 0.05,-0.07 0.07,-0.11 0.02,-0.04 0.05,-0.08 0.06,-0.11 0.03,-0.03 0.04,-0.05 0.04,-0.06zm1.95 -1.4c0,0.03 -0.01,0.06 -0.03,0.07 -0.02,0.02 -0.04,0.04 -0.06,0.06 -0.04,0.04 -0.07,0.07 -0.09,0.1 -0.03,0.04 -0.06,0.07 -0.1,0.1 -0.01,0.02 -0.03,0.04 -0.06,0.06 -0.02,0.02 -0.05,0.05 -0.08,0.07 -0.02,0.02 -0.05,0.04 -0.08,0.06 -0.02,0.02 -0.04,0.03 -0.06,0.03 -0.03,0 -0.07,-0.01 -0.11,-0.03 -0.05,-0.02 -0.09,-0.03 -0.12,-0.04 -0.02,-0.01 -0.05,-0.01 -0.07,-0.01 -0.02,0 -0.03,-0.01 -0.05,-0.03 -0.07,-0.01 -0.11,-0.04 -0.13,-0.07 -0.01,-0.03 -0.03,-0.06 -0.06,-0.09 0,-0.01 0.01,-0.02 0.02,-0.03 0.01,0 0.02,-0.01 0.03,-0.02 0.03,-0.04 0.06,-0.08 0.09,-0.11 0.02,-0.03 0.05,-0.07 0.08,-0.1 0.07,-0.05 0.12,-0.11 0.18,-0.17 0.06,-0.05 0.11,-0.11 0.17,-0.16 0.03,0 0.05,-0.01 0.07,-0.03 0.01,-0.02 0.03,-0.03 0.06,-0.03 0.03,0 0.06,0.01 0.08,0.03 0.02,0.02 0.03,0.04 0.05,0.06 0.02,0.03 0.03,0.05 0.05,0.07 0.01,0.03 0.03,0.04 0.05,0.05 0.03,0.02 0.06,0.05 0.11,0.07 0.04,0.03 0.06,0.06 0.06,0.09zm-0.74 1c0.03,0.01 0.05,0.03 0.06,0.06 0.01,0.02 0.03,0.04 0.06,0.05 0.02,0.01 0.04,0.01 0.07,0.01 0.02,0 0.04,0.01 0.06,0.01 0.02,0.01 0.03,0.02 0.03,0.03 0.01,0.01 0.02,0.02 0.03,0.03 0.02,0.02 0.05,0.04 0.1,0.05 0.04,0.02 0.07,0.03 0.08,0.05 0.03,0.03 0.05,0.07 0.06,0.12 0.01,0.05 0.02,0.11 0.03,0.16 0.01,0.06 0.01,0.11 0.02,0.17 0,0.06 0.01,0.1 0.01,0.14 0.01,0.08 0.02,0.17 0.03,0.25 0.01,0.08 0.02,0.16 0.02,0.24 0,0.08 -0.01,0.17 -0.02,0.25 0,0.09 -0.01,0.17 -0.01,0.26 0,0.04 0,0.09 0,0.16 0,0.06 -0.02,0.11 -0.04,0.15 -0.01,0.01 -0.01,0.04 -0.01,0.07l0 0.18c0,0.02 0,0.04 0.01,0.06 0,0.02 0,0.04 0,0.07 0,0.04 -0.01,0.07 -0.03,0.09 -0.01,-0.01 -0.02,-0.01 -0.04,-0.01 -0.01,0 -0.02,0 -0.03,0 -0.04,0 -0.07,0.01 -0.09,0.02 -0.04,0 -0.07,-0.01 -0.11,-0.01 -0.04,0 -0.07,0 -0.11,0 -0.06,0 -0.13,0 -0.2,0.02 -0.02,-0.03 -0.02,-0.07 -0.02,-0.11 0,-0.04 -0.01,-0.08 -0.03,-0.11 0,-0.01 0,-0.02 0,-0.03 0,-0.01 -0.01,-0.02 -0.01,-0.03 0.01,-0.04 0.02,-0.07 0.02,-0.09 0,-0.01 0,-0.03 0,-0.05 0,-0.05 0,-0.1 -0.01,-0.15 0,-0.05 0,-0.1 0.01,-0.15 0,-0.02 0,-0.04 0.01,-0.05 0,-0.02 0.01,-0.03 0.01,-0.05 0,-0.02 -0.01,-0.03 -0.01,-0.04 -0.01,0 -0.02,-0.01 -0.02,-0.03 0,-0.01 0.01,-0.02 0.01,-0.05 0,-0.02 0,-0.04 0.01,-0.05 0,-0.03 0,-0.05 0,-0.08 0.01,-0.03 0.01,-0.05 0.01,-0.08 0,-0.06 -0.01,-0.11 -0.01,-0.17 0,-0.06 0,-0.11 0,-0.17 0,-0.02 -0.01,-0.04 -0.01,-0.05 0,0 -0.01,-0.01 -0.01,-0.01 0,0 -0.01,-0.01 -0.02,-0.01 0,0 -0.01,-0.01 -0.01,-0.02 0.01,-0.16 0.01,-0.31 -0.02,-0.47 -0.02,-0.16 -0.04,-0.32 -0.04,-0.48 0,-0.02 0.01,-0.04 0.01,-0.06 0.01,-0.01 0.02,-0.02 0.03,-0.03 0.01,0 0.02,-0.01 0.03,-0.02 0.01,-0.01 0.02,-0.02 0.02,-0.04 0.03,0.01 0.05,0.01 0.07,0zm3.87 0.52c0,0.02 -0.01,0.03 -0.02,0.04 0,0.01 -0.01,0.03 -0.01,0.04 0.01,0.02 0.02,0.03 0.04,0.05 0.01,0.01 0.02,0.03 0.02,0.05 0,0.01 -0.01,0.03 -0.01,0.04 -0.01,0.01 -0.01,0.02 0,0.03 -0.02,0.03 -0.03,0.05 -0.05,0.07 -0.02,0.03 -0.03,0.05 -0.04,0.07 -0.01,0.02 -0.02,0.03 -0.03,0.05 -0.01,0.01 -0.02,0.03 -0.02,0.04 -0.02,0.01 -0.03,0.02 -0.04,0.03 -0.01,0.02 -0.02,0.03 -0.03,0.04 0,0.02 -0.02,0.05 -0.05,0.11 -0.04,0.05 -0.07,0.11 -0.11,0.17 -0.04,0.06 -0.08,0.12 -0.11,0.18 -0.04,0.05 -0.06,0.09 -0.08,0.11 -0.01,0.02 -0.01,0.03 -0.02,0.04 -0.01,0.01 -0.02,0.03 -0.03,0.04 -0.01,0.01 -0.01,0.02 -0.02,0.04 0,0.01 -0.01,0.02 -0.01,0.02 -0.01,0.02 -0.02,0.03 -0.03,0.04 -0.01,0.01 -0.02,0.03 -0.02,0.05 -0.04,0.04 -0.07,0.1 -0.11,0.16 -0.04,0.07 -0.07,0.12 -0.1,0.17 -0.02,0.03 -0.04,0.06 -0.05,0.09 -0.02,0.03 -0.04,0.06 -0.05,0.09 -0.02,0.02 -0.04,0.05 -0.06,0.08 -0.02,0.02 -0.03,0.05 -0.05,0.08 -0.03,0.02 -0.06,0.04 -0.08,0.07 -0.02,0.04 -0.04,0.06 -0.07,0.08 -0.05,0 -0.08,-0.02 -0.09,-0.06 -0.05,-0.01 -0.07,-0.01 -0.07,0 0,0.01 0,0.02 0,0.03 -0.01,0 -0.02,0.01 -0.03,0.03 0,0.01 -0.01,0.02 -0.03,0.03 -0.03,-0.01 -0.05,-0.02 -0.07,-0.04 -0.02,-0.01 -0.05,-0.02 -0.08,-0.01 -0.02,-0.03 -0.03,-0.04 -0.05,-0.06 -0.02,-0.02 -0.04,-0.03 -0.05,-0.05 -0.01,-0.02 -0.02,-0.04 -0.03,-0.06 -0.01,-0.01 -0.02,-0.02 -0.04,-0.04 -0.01,-0.02 -0.02,-0.03 -0.03,-0.05 -0.01,-0.01 -0.02,-0.03 -0.03,-0.04 -0.02,-0.03 -0.05,-0.06 -0.07,-0.09 -0.02,-0.03 -0.05,-0.07 -0.06,-0.1 -0.03,-0.04 -0.06,-0.08 -0.09,-0.13 -0.02,-0.04 -0.05,-0.09 -0.08,-0.13 -0.01,-0.02 -0.03,-0.04 -0.04,-0.07 -0.02,-0.02 -0.03,-0.04 -0.04,-0.06 -0.01,-0.02 -0.02,-0.04 -0.03,-0.06 -0.01,-0.03 -0.03,-0.05 -0.05,-0.05 0,-0.03 -0.02,-0.05 -0.03,-0.07 -0.02,-0.01 -0.04,-0.03 -0.06,-0.05 -0.02,-0.03 -0.05,-0.06 -0.07,-0.1 -0.02,-0.03 -0.04,-0.06 -0.06,-0.1 -0.07,-0.1 -0.14,-0.2 -0.2,-0.3 -0.07,-0.09 -0.13,-0.19 -0.19,-0.3 0.02,-0.05 0.03,-0.1 0.03,-0.13 0,-0.02 0.01,-0.05 0.03,-0.07 0,-0.01 0,-0.03 0.01,-0.06 0.04,-0.08 0.09,-0.15 0.13,-0.22 0.04,-0.06 0.07,-0.11 0.08,-0.15 0.02,-0.03 0.04,-0.08 0.05,-0.12 0.02,-0.01 0.04,-0.02 0.05,-0.04 0.01,-0.02 0.02,-0.03 0.04,-0.05 0.01,-0.04 0.02,-0.07 0.05,-0.09 0.02,-0.03 0.04,-0.06 0.05,-0.1 0.03,-0.03 0.05,-0.06 0.05,-0.09 0.05,-0.03 0.08,-0.08 0.09,-0.13 0.03,-0.03 0.05,-0.06 0.07,-0.1 0.02,-0.03 0.04,-0.07 0.06,-0.11 0.04,-0.03 0.07,-0.08 0.1,-0.14 0.02,-0.01 0.04,-0.03 0.05,-0.06 0.01,-0.02 0.02,-0.04 0.04,-0.06 0.03,-0.05 0.05,-0.09 0.07,-0.12 0.01,-0.03 0.03,-0.06 0.05,-0.09 0.02,0 0.04,-0.01 0.05,-0.03 0,-0.02 0.02,-0.02 0.04,-0.02 0,-0.03 0.01,-0.06 0.03,-0.09 0,0 0.01,0 0.03,-0.01 0.01,-0.01 0.02,-0.01 0.02,-0.02 -0.01,-0.04 -0.01,-0.07 0.01,-0.07 0.01,-0.01 0.01,-0.02 0.02,-0.03 0.04,0.01 0.07,0.02 0.08,0.02 0.02,0 0.04,0.02 0.07,0.04 0.04,0 0.06,0.01 0.08,0.02 0.01,0.01 0.03,0.02 0.05,0.03 0.01,0.02 0.02,0.03 0.03,0.05 0.01,0.01 0.02,0.02 0.04,0.03 0.03,0.04 0.06,0.08 0.09,0.13 0.04,0.04 0.07,0.09 0.09,0.13 0.04,0.05 0.08,0.1 0.13,0.15 0.04,0.05 0.07,0.1 0.11,0.16 0.01,0.02 0.03,0.05 0.06,0.09 0.03,0.05 0.06,0.09 0.1,0.14 0.03,0.05 0.06,0.1 0.09,0.14 0.03,0.04 0.05,0.07 0.06,0.07 0.01,0.02 0.04,0.06 0.07,0.11 0.04,0.05 0.08,0.1 0.12,0.15 0.04,0.06 0.08,0.11 0.12,0.16 0.04,0.05 0.06,0.09 0.08,0.1 0.04,0.05 0.07,0.1 0.09,0.13 0.02,0.04 0.04,0.07 0.05,0.11zm-1.23 1.01c0.04,-0.05 0.07,-0.1 0.1,-0.14 0.02,-0.05 0.04,-0.09 0.06,-0.13 0.04,-0.04 0.06,-0.08 0.06,-0.09 0.01,-0.02 0.02,-0.04 0.03,-0.06 0.03,-0.04 0.06,-0.08 0.09,-0.13 0.03,-0.04 0.05,-0.09 0.07,-0.14 0.02,-0.01 0.04,-0.03 0.05,-0.05 0.01,-0.02 0.03,-0.04 0.05,-0.06 -0.02,-0.07 -0.05,-0.13 -0.08,-0.17 -0.02,-0.04 -0.05,-0.09 -0.08,-0.12 -0.01,-0.02 -0.02,-0.04 -0.03,-0.06 -0.02,-0.02 -0.03,-0.03 -0.04,-0.05 -0.01,-0.01 -0.02,-0.02 -0.03,-0.03 -0.01,-0.02 -0.02,-0.03 -0.03,-0.04 -0.01,-0.01 -0.02,-0.04 -0.03,-0.07 -0.02,-0.01 -0.03,-0.03 -0.05,-0.04 -0.01,-0.02 -0.02,-0.04 -0.03,-0.06 -0.02,-0.01 -0.04,-0.03 -0.06,-0.06 -0.02,-0.02 -0.04,-0.05 -0.06,-0.08 -0.03,-0.03 -0.05,-0.06 -0.07,-0.09 -0.01,-0.02 -0.03,-0.05 -0.04,-0.06 -0.01,-0.02 -0.01,-0.04 -0.02,-0.05 0,-0.01 -0.01,-0.03 -0.02,-0.04 -0.02,-0.03 -0.03,-0.05 -0.05,-0.07 -0.02,-0.02 -0.04,-0.04 -0.06,-0.06 -0.01,0 -0.02,0.01 -0.02,0.01 -0.01,0 -0.02,0.01 -0.03,0.01 -0.02,0.05 -0.05,0.09 -0.08,0.13 -0.03,0.04 -0.06,0.08 -0.09,0.13 -0.03,0.04 -0.05,0.09 -0.08,0.13 -0.02,0.05 -0.05,0.09 -0.07,0.13 -0.02,0.03 -0.04,0.05 -0.05,0.08 -0.02,0.02 -0.04,0.05 -0.05,0.07 -0.02,0.03 -0.04,0.06 -0.05,0.08 -0.01,0.03 -0.03,0.06 -0.05,0.08 -0.02,0.04 -0.05,0.07 -0.06,0.1 -0.02,0.03 -0.04,0.06 -0.06,0.1 0.01,0.02 0.03,0.05 0.05,0.09 0.03,0.04 0.05,0.07 0.07,0.11 0.03,0.04 0.05,0.07 0.07,0.11 0.02,0.03 0.03,0.05 0.04,0.06 0.03,0.03 0.05,0.05 0.07,0.08 0.01,0.03 0.04,0.06 0.07,0.09 0.01,0.03 0.03,0.06 0.04,0.08 0.02,0.02 0.04,0.04 0.06,0.07 0.02,0.02 0.04,0.06 0.07,0.11 0.03,0.05 0.06,0.1 0.08,0.14 0.03,0.06 0.06,0.1 0.09,0.15 0.03,0.04 0.05,0.06 0.07,0.07 0.04,-0.03 0.07,-0.08 0.09,-0.13 0.02,-0.04 0.05,-0.09 0.09,-0.13z"/>
  </g>
 </g>
</svg>
