<svg xmlns="http://www.w3.org/2000/svg" width="352" height="352" version="1.0" viewBox="0 0 5089.54 5089.54" shape-rendering="geometricPrecision" text-rendering="geometricPrecision" image-rendering="optimizeQuality" fill-rule="evenodd" clip-rule="evenodd"><defs><style>.fil1{fill:#f8e0bc;fill-rule:nonzero}</style></defs><circle cx="2544.76" cy="2544.76" r="2530.3" fill="#d15d46" stroke="#d15d46" stroke-width="28.91" stroke-linecap="round" stroke-linejoin="round" stroke-miterlimit="22.926" id="Capa_x0020_1"/><g id="Designed_x0020_by_x0020_Freepik"><path class="fil1" d="M2057.06 1802.11c28.15 0 56.96 5.04 84.96 9.79 16.76 2.24 32.19 26.83 40.99 44.67 40.52 94.9 81.08 189.73 116.07 286.89 19.74 51.31-16.32 100.46-91.77 185.22-23.69 26.81-28.35 52.48-10.67 83.69 118.94 204.27 286.33 351.65 507.81 438.66 10.04 3.84 19.2 5.65 27.72 5.65 18.92 0 34.72-9.16 49.44-26.83 94.61-114.27 121.62-164.34 159.93-164.34 9.59 0 19.91 3.16 32.12 9.16 295.75 141.72 319.14 147.38 320.06 180.85 7.71 237.72-199.32 331.08-339.55 331.08l-21.24-.7c-286.78-10.15-742.68-236.64-1052.12-781.33-109.03-193.04-91.71-412.9 72.39-564.77 31.3-29.06 66.99-37.69 103.86-37.69z"/><path class="fil1" d="M2739.34 3695.95c668.19-107.21 1129.38-731.1 1032.93-1396.23-89.69-613.77-608.47-1047.21-1203.55-1047.21-73.74 0-148.54 6.54-223.89 20.37-827.06 151.79-1272.71 1072.57-867.62 1802.51 45.21 80.37 56.96 147.27 25.02 233.21-36.49 103.88-59.65 210.97-92.92 328.16 146.56-37.96 281.85-71.44 416.03-109.37 12.57-3.31 24.06-4.93 35.09-4.93 22.51 0 42.87 6.73 65.31 19.47 193.3 112.04 397.56 170.34 613.28 170.34 65.68 0 132.4-5.46 200.32-16.32zM4002.9 2208.11c141.09 812.55-396.04 1582.65-1202.92 1724.46-86.84 14.81-172.67 22.19-257.53 22.19-227.4 0-447.54-52.94-658.88-156.19-17.78-8.9-40.1-13.37-60.9-13.37-10.43 0-20.47 1.17-29.42 3.41-390.22 98.13-649.73 170.69-729.12 186.3 17.21-63.58 32.19-119.37 47.1-175.16 50.5-178.62 102.07-356.05 149.19-534.65 6.88-26.83 4.93-61.36-7.21-85.95-446.54-861.59 29.07-1905.19 979.48-2128.38 117.42-27.46 232.97-40.45 345.64-40.45 716.09 0 1307.14 525.66 1424.57 1197.79z"/></g></svg>